<?xml version="1.0" encoding="utf-8"?>
<!-- Generator: Adobe Illustrator 17.1.0, SVG Export Plug-In . SVG Version: 6.00 Build 0)  -->
<!DOCTYPE svg PUBLIC "-//W3C//DTD SVG 1.1//EN" "http://www.w3.org/Graphics/SVG/1.1/DTD/svg11.dtd">
<svg version="1.1" id="Layer_1" xmlns="http://www.w3.org/2000/svg" xmlns:xlink="http://www.w3.org/1999/xlink" x="0px" y="0px"
	 viewBox="0 0 400 2851" enable-background="new 0 0 400 2851" xml:space="preserve">
<g>
	<g>
		<path fill="#3B3F42" d="M118.7,46.1c2.8,0,7.3,1,7.3,4.3v2.3h-3.2v-1.3c0-1.4-2.4-2.1-4-2.1c-3.7,0-6.3,2.7-6.3,6.7
			c0,4.3,3,6.7,6.5,6.7c3.2,0,5.3-1.9,5.9-2.4l1.4,2.6c-0.8,0.8-3.5,2.9-7.5,2.9c-5.4,0-10-3.7-10-9.8
			C108.9,50.2,113.2,46.1,118.7,46.1z"/>
		<path fill="#3B3F42" d="M139.7,53.7h1.2V53c0-3-1.7-4-4-4c-2.9,0-5.3,1.8-5.3,1.8l-1.4-2.6c0,0,2.7-2.2,7-2.2
			c4.7,0,7.2,2.5,7.2,7.2v8.4c0,0.6,0.3,0.8,0.8,0.8h1.9v2.8h-3.7c-1.7,0-2.3-0.8-2.3-2v-0.3c0-0.7,0.1-1.2,0.1-1.2h-0.1
			c0,0-1.6,4-6.1,4c-3.1,0-6.2-1.8-6.2-5.7C128.9,54.1,136.7,53.7,139.7,53.7z M135.9,62.9c3.2,0,5.1-3.3,5.1-6.1v-0.8H140
			c-1.7,0-7.5,0.1-7.5,3.7C132.5,61.4,133.7,62.9,135.9,62.9z"/>
		<path fill="#3B3F42" d="M151.6,70c1.6,0,2.8-1.1,3.4-2.6l0.8-1.9l-6.5-16.3H147v-2.8h8.5v2.8H153l4.1,11.1
			c0.3,0.8,0.3,1.6,0.3,1.6h0.1c0,0,0.1-0.8,0.4-1.6l4.1-11.1h-2.4v-2.8h8.2v2.8h-2.3l-7.3,18.9c-1.2,3.2-3.7,4.8-6.5,4.8
			c-2.4,0-4-1.2-4-1.2l1.2-2.7C149,69.1,150,70,151.6,70z"/>
		<path fill="#3B3F42" d="M178.4,53.7h1.2V53c0-3-1.7-4-4-4c-2.9,0-5.3,1.8-5.3,1.8l-1.4-2.6c0,0,2.7-2.2,7-2.2
			c4.7,0,7.2,2.5,7.2,7.2v8.4c0,0.6,0.3,0.8,0.8,0.8h1.9v2.8h-3.7c-1.7,0-2.3-0.8-2.3-2v-0.3c0-0.7,0.1-1.2,0.1-1.2h-0.1
			c0,0-1.6,4-6.1,4c-3.1,0-6.2-1.8-6.2-5.7C167.6,54.1,175.3,53.7,178.4,53.7z M174.5,62.9c3.2,0,5.1-3.3,5.1-6.1v-0.8h-0.9
			c-1.7,0-7.5,0.1-7.5,3.7C171.2,61.4,172.4,62.9,174.5,62.9z"/>
		<path fill="#3B3F42" d="M188.9,41.9h-3.1v-2.8h6.7v8.7c0,0.9-0.1,1.6-0.1,1.6h0.1c0,0,1.7-3.3,6-3.3c5,0,8.2,4,8.2,9.8
			c0,6-3.6,9.8-8.5,9.8c-4.3,0-5.9-3.4-5.9-3.4h-0.1c0,0,0.1,0.7,0.1,1.5v1.5h-3.4V41.9z M197.7,62.6c2.9,0,5.3-2.4,5.3-6.7
			c0-4.1-2.2-6.7-5.2-6.7c-2.8,0-5.4,2-5.4,6.7C192.4,59.3,194.1,62.6,197.7,62.6z"/>
		<path fill="#3B3F42" d="M211.4,70c1.6,0,2.8-1.1,3.4-2.6l0.8-1.9l-6.5-16.3h-2.3v-2.8h8.5v2.8h-2.5l4.1,11.1
			c0.3,0.8,0.3,1.6,0.3,1.6h0.1c0,0,0.1-0.8,0.4-1.6l4.1-11.1h-2.4v-2.8h8.2v2.8h-2.3l-7.3,18.9c-1.2,3.2-3.7,4.8-6.5,4.8
			c-2.4,0-4-1.2-4-1.2l1.2-2.7C208.8,69.1,209.9,70,211.4,70z"/>
		<path fill="#3B3F42" d="M238.3,53.7h1.2V53c0-3-1.7-4-4-4c-2.9,0-5.3,1.8-5.3,1.8l-1.4-2.6c0,0,2.7-2.2,7-2.2
			c4.7,0,7.2,2.5,7.2,7.2v8.4c0,0.6,0.3,0.8,0.8,0.8h1.9v2.8H242c-1.6,0-2.3-0.8-2.3-2v-0.3c0-0.7,0.1-1.2,0.1-1.2h-0.1
			c0,0-1.6,4-6.1,4c-3.1,0-6.2-1.8-6.2-5.7C227.4,54.1,235.2,53.7,238.3,53.7z M234.4,62.9c3.2,0,5.1-3.3,5.1-6.1v-0.8h-0.9
			c-1.7,0-7.5,0.1-7.5,3.7C231,61.4,232.2,62.9,234.4,62.9z"/>
		<path fill="#3B3F42" d="M248.8,41.9h-3.1v-2.8h6.7v8.7c0,0.9-0.1,1.6-0.1,1.6h0.1c0,0,1.7-3.3,6-3.3c5,0,8.2,4,8.2,9.8
			c0,6-3.6,9.8-8.5,9.8c-4.3,0-5.9-3.4-5.9-3.4H252c0,0,0.1,0.7,0.1,1.5v1.5h-3.4V41.9z M257.5,62.6c2.9,0,5.3-2.4,5.3-6.7
			c0-4.1-2.2-6.7-5.3-6.7c-2.8,0-5.4,2-5.4,6.7C252.2,59.3,253.9,62.6,257.5,62.6z"/>
		<g>
			<path fill="#3B3F42" d="M20.3,62.3h2.7V50.2c0-0.5-0.3-0.8-0.8-0.8H20v-2.7h4.1c1.6,0,2.3,0.7,2.3,2.1v1.2c0,0.7-0.1,1.3-0.1,1.3
				h0.1c0.8-2.7,3-4.8,5.8-4.8c0.5,0,0.9,0.1,0.9,0.1V50c0,0-0.4-0.1-1-0.1c-3.9,0-5.6,4-5.6,7.6v4.9h2.7V65h-8.9V62.3z"/>
			<path fill="#3B3F42" d="M38.7,69.7c1.6,0,2.7-1.1,3.4-2.5l0.8-1.8l-6.4-16h-2.3v-2.7h8.3v2.7H40l4.1,10.9
				c0.3,0.8,0.3,1.6,0.3,1.6h0.1c0,0,0.1-0.8,0.4-1.6l4-10.9h-2.3v-2.7h8.1v2.7h-2.3l-7.2,18.6c-1.2,3.1-3.6,4.7-6.4,4.7
				c-2.3,0-3.9-1.2-3.9-1.2l1.2-2.7C36.1,68.9,37.1,69.7,38.7,69.7z"/>
			<path fill="#3B3F42" d="M65.2,53.7h1.2V53c0-2.9-1.7-3.9-3.9-3.9c-2.9,0-5.2,1.8-5.2,1.8l-1.4-2.5c0,0,2.7-2.2,6.9-2.2
				c4.7,0,7.1,2.4,7.1,7.1v8.2c0,0.5,0.3,0.8,0.8,0.8h1.8V65h-3.6c-1.6,0-2.3-0.8-2.3-2v-0.3c0-0.7,0.1-1.2,0.1-1.2h-0.1
				c0,0-1.6,3.9-6,3.9c-3,0-6.1-1.8-6.1-5.6C54.6,54.1,62.2,53.7,65.2,53.7z M61.4,62.7c3.1,0,5-3.2,5-6V56h-0.9
				c-1.7,0-7.4,0.1-7.4,3.6C58.1,61.3,59.3,62.7,61.4,62.7z"/>
			<path fill="#3B3F42" d="M74.2,62.3H77V50.2c0-0.5-0.3-0.8-0.8-0.8H74v-2.7h4.1c1.6,0,2.3,0.7,2.3,2v0.9c0,0.6-0.1,1.1-0.1,1.1
				h0.1c0.4-1,2.5-4.5,7.1-4.5c4.2,0,6.1,2.4,6.1,7.1v9.1h2.9V65h-6.4v-11c0-2.6-0.5-4.6-3.4-4.6c-3.7,0-6.1,3.4-6.1,7.1v5.8h2.9V65
				h-9.2V62.3z"/>
		</g>
	</g>
	<g>
		<path fill="#3B3F42" d="M302,58.6c0,0,1.7-4.4,1.7-7.4c0-3,0-9.9,0-9.9s1.1-9.3,10.4-9.3c9.4,0,10.8,8.9,10.8,10.3
			c0,1.3-0.6,11.2-10.5,11.2v-4.7c0,0-0.1-2.1-2.6-2.1c-2.5,0-2.9,1.3-2.9,2c0,0.7,0,2.1,0,2.1S309,58.6,302,58.6z"/>
		<path fill="#3B3F42" d="M269.4,36c0,2,3,3,3,3h9.1c0,0-8.2,2.6-8.2,5.6c0,3,3.4,3.4,3.4,3.4v-3.4h5.2v2.2c0,0-2.7,0.8-2.7,6.7
			c0,5.9,2.7,6.4,2.7,6.4v1.4c-5.2,0-5.3,4.1-5.3,4.1s20.9,0,21.7,0c0.7,0,2.1-0.5,2.1-2.1s-2.1-2.1-2.1-2.1
			c11.7-24-11.1-30.2-11.1-30.2s0-2.2,0-6.3c0-4.1-5.5-4.7-5.5-4.7v3.1c-7.4,0-9.5,4.1-9.5,4.1S269.4,34,269.4,36z M275.5,31.6
			c0-0.8,0.6-1.4,1.4-1.4c0.8,0,1.4,0.6,1.4,1.4c0,0.8-0.6,1.4-1.4,1.4C276.1,33,275.5,32.4,275.5,31.6z"/>
	</g>
</g>
<g>
	<path fill="#3B3F42" d="M52.8,138.3c0,0,1.7-4.4,1.7-7.3c0-3,0-9.8,0-9.8s1.1-9.2,10.5-9.2c9.4,0,10.9,8.9,10.9,10.2
		c0,1.3-0.6,11.1-10.6,11.1v-4.7c0,0-0.1-2.1-2.6-2.1c-2.6,0-2.9,1.3-2.9,2c0,0.7,0,2.1,0,2.1S59.9,138.3,52.8,138.3z"/>
	<path fill="#3B3F42" d="M20,115.8c0,2,3,3,3,3h9.2c0,0-8.3,2.6-8.3,5.6c0,3,3.4,3.4,3.4,3.4v-3.4h5.2v2.2c0,0-2.7,0.8-2.7,6.7
		c0,5.8,2.8,6.3,2.8,6.3v1.4c-5.2,0-5.3,4-5.3,4s21.1,0,21.8,0c0.7,0,2.2-0.5,2.2-2.1c0-1.6-2.1-2.1-2.1-2.1
		c11.8-23.8-11.2-30-11.2-30s0-2.2,0-6.2c0-4-5.5-4.7-5.5-4.7v3c-7.4,0-9.6,4.1-9.6,4.1S20,113.9,20,115.8z M26.1,111.5
		c0-0.8,0.6-1.4,1.4-1.4s1.4,0.6,1.4,1.4c0,0.8-0.6,1.4-1.4,1.4S26.1,112.3,26.1,111.5z"/>
</g>
<path fill-rule="evenodd" clip-rule="evenodd" fill="#A6A8AB" d="M20,224.9c0-41.1,30.3-44.9,47-44.9c16.7,0,47,3.8,47,44.9
	c0,40.1-30.8,45.1-47,45.1C51.1,270,20,264.9,20,224.9L20,224.9z M84.7,223.4l5.1,38c2.8-1.5,17.9-8.9,17.7-36.5
	c0-32.5-19.7-41.1-36.6-41.1L84.7,223.4L84.7,223.4z M67,215.7h2.3v-31.9c-0.3,0-2.3,0-2.3,0h-2v31.9H67L67,215.7z M67,266.2
	c9.4,0,17.7-2.5,21.2-4.3l-18.4-40.3h-5.6l-18.4,40.3C49.3,263.7,57.7,266.2,67,266.2L67,266.2z M63.2,183.8
	c-16.9,0-36.6,8.6-36.6,41.1c-0.3,27.6,14.9,35,17.7,36.5l5.3-38L63.2,183.8L63.2,183.8z"/>
<g>
	<rect x="120.3" y="333.6" fill="#F7323F" width="2.9" height="10.1"/>
	<polygon fill="#F7323F" points="104,330.3 94.9,330.3 94.9,320.3 104,320.3 104,322.4 97.6,322.4 97.6,324.2 103.5,324.2 
		103.5,326.2 97.6,326.2 97.6,328.2 104,328.2 	"/>
	<path fill="#F7323F" d="M130.8,337.9c-2.3-0.9-2.9-0.9-3.1-1.3c-0.4-0.8,0.6-1.1,1.7-1.1c0.3,0,1,0.1,2.7,0.3v-2.3
		c-0.8-0.2-1.9-0.3-3-0.3c-1.7,0-4.6,0.4-4.5,3.3c0.2,1.8,1.5,2.3,3.3,2.9c1.6,0.5,1.9,0.6,1.9,1.4c-0.1,0.7-1,0.8-1.6,0.8
		c-1.1,0-2.5-0.2-3.6-0.5v2.4c0,0,1.9,0.4,3.7,0.4c1.3,0,4.2-0.4,4.5-3.2C132.8,338.9,131.7,338.3,130.8,337.9"/>
	<path fill="#F7323F" d="M91.5,320.3h3.1l-4.4,10.1h-3.1l-4.4-10.1h3.1l2.6,6.4c0.1,0.2,0.2,0.5,0.2,0.7c0-0.2,0.1-0.5,0.2-0.7
		L91.5,320.3z"/>
	<polygon fill="#F7323F" points="103.6,340.6 99.3,333.6 95.7,333.6 95.7,343.7 98.4,343.7 98.4,336.7 102.7,343.7 106.3,343.7 
		106.3,333.6 103.6,333.6 	"/>
	<path fill="#F7323F" d="M108,322.4h2.7c0.5,0,1.4,0,1.4,1.2c0,1-0.7,1.2-1.4,1.2h-2.4l3.9,5.6h3.5l-3.4-4.1c1,0,2.7-0.8,2.7-2.7
		c0.1-2.6-1.2-3.3-3.2-3.3h-6.6v10.1h2.9V322.4z"/>
	<polygon fill="#F7323F" points="85.4,343.7 94.5,343.7 94.5,341.6 88.1,341.6 88.1,339.5 94,339.5 94,337.5 88.1,337.5 88.1,335.7 
		94.5,335.7 94.5,333.6 85.4,333.6 	"/>
	<path fill="#F7323F" d="M121.9,330.3v-3.6l4.6-6.4h-3.3l-2.4,3.8c-0.2,0.3-0.3,0.6-0.3,0.6s-0.1-0.2-0.3-0.6l-2.3-3.8h-3.3l4.5,6.4
		v3.6L121.9,330.3z"/>
	<path fill="#F7323F" d="M77.3,320.3L73,330.3h3.1l0.9-2.2h4.3l0.9,2.2h3.1l-4.3-10.1H77.3z M77.7,326.2l1-2.6c0,0,0.2-0.5,0.3-1
		c0.2,0.5,0.4,1,0.4,1l1,2.6H77.7z"/>
	<polygon fill="#F7323F" points="115.9,333.6 118.6,333.6 118.6,343.7 115,343.7 110.7,336.7 110.7,343.7 108,343.7 108,333.6 
		111.6,333.6 115.9,340.6 	"/>
	<polygon fill="#F7323F" points="154.3,333.6 154.3,340.6 150,333.6 146.4,333.6 146.4,343.7 149.1,343.7 149.1,336.7 153.4,343.7 
		157,343.7 157,333.6 	"/>
	<path fill="#F7323F" d="M66.9,331.6l-14.5-25.1c-1-1.8-1-1.7-1.2-2.1c-0.8-1.4-1.9-2.7-3.1-3.4c-1.5-0.9-3.7-1.4-6.1-0.7
		c-2,0.6-3.5,1.8-5.2,4.5l-2,3.4l-13.2,23.2c-0.8,1.6-0.6,1.2-0.9,1.8c-0.4,1.1-0.6,1.7-0.6,2.9c0,3.5,2.8,7.4,8.3,7.5
		c0.8,0-0.3,0,1.6,0c2.8,0,22.9,0,28.6,0c0.9,0,0.6,0,1.7-0.1c3.9-0.2,6.8-1.9,7.9-5.6C68.8,335.4,68.1,333.6,66.9,331.6
		 M40.1,306.1c0.9-1.5,1.7-2.1,2.7-2.4c2.4-0.7,4.7,0.6,5.4,2.9c0.3,1,0.2,2.1-0.6,3.6L37,328.4h-2.8l11.3-19.6
		c0.4-0.7,0.5-1.2,0.4-1.7c-0.3-0.9-1.2-1.6-2.3-1.2c-0.4,0.2-0.8,0.4-1.2,1.2l-12.2,21.3h-0.4c-0.8,0-1.7,0.1-2.6,0.4L40.1,306.1z
		 M44.2,323.1l3.1,5.3h-6.2L44.2,323.1z M28.3,340.2c-1.3-0.1-2.2-0.2-3.3-1.1c-1.9-1.7-1.9-4.4-0.2-6c0.8-0.8,1.9-1.2,3.3-1.3h21.1
		l1.4,2.4H27.9c-0.4,0-1,0.2-1.4,0.5c-0.7,0.7-0.7,1.8,0.1,2.5c0.4,0.4,0.9,0.5,1.3,0.5h24.8c0.6,0.9,0.9,1.5,2,2.4H28.3z M64.6,337
		c-0.6,2.3-3,3.7-5.3,3c-1.3-0.4-2-1.3-2.7-2.4l-10.4-18l1.4-2.4l11.1,19.2c0.5,0.9,0.9,1.2,1.3,1.3c0.9,0.3,2-0.3,2.2-1.2
		c0.1-0.5,0-0.9-0.4-1.7l-12.3-21.1c0.4-0.8,0.9-1.7,1-3l13.3,23C64.6,334.6,65,335.6,64.6,337"/>
	<path fill="#F7323F" d="M79.6,333.6h-6.2v10.1h6.3c3.6,0,4.6-2.7,4.7-5C84.4,336.5,83.2,333.6,79.6,333.6 M78.4,341.4h-2.3v-5.6
		h2.4c1.6,0,3,0.7,3,2.8C81.5,341,80.1,341.4,78.4,341.4"/>
	<path fill="#F7323F" d="M139.3,333.1c-3.8-0.1-5.9,2-5.9,5.4c0,3.4,2.1,5.5,5.9,5.4c3.8,0.1,6-2.1,5.9-5.4
		C145.2,335.2,143.1,333.1,139.3,333.1 M139.3,341.5c-2,0-3.1-1.2-3.1-3s1.1-3,3.1-3c2.1,0,3.1,1.2,3.1,3S141.4,341.5,139.3,341.5"
		/>
</g>
<path fill="#F7323F" d="M88.7,327.3"/>
<path fill="#231F20" d="M147.4,425.2v-12.3H139v-11l-9.8,0l0-0.1c-8.4-13.2-23.5-21.6-40.7-21.7h0c-17.2,0.1-32.3,8.5-40.7,21.7
	l0,0.1l-9.8,0v11h-8.4v12.3H20V441h137v-15.8H147.4z M114.1,415.9l1.7,0v-9.7c1.1,1.3,2.1,2.4,2.6,3.2v9.7h-4.3V415.9z M106.6,415.9
	h2.6v-15.5c1,0.7,2.2,1.6,2.8,2.1V419h-5.3V415.9z M100,415.9h1.8v-19.5c1.4,0.6,2.3,1,2.8,1.2V419H100V415.9z M92.7,415.9h2.6
	v-21.3c1.6,0.3,2.2,0.5,2.6,0.6V419h-5.2V415.9z M86,394.1c0.9-0.1,1.7-0.1,2.6-0.1c0.7,0,1.3,0,2,0.1v4.1H86V394.1z M86,402.5h4.6
	V419H86V402.5z M78.9,395.3c1.5-0.4,3.1-0.8,4.7-1V419h-4.7V395.3z M71.8,397.9c1.5-0.8,3.1-1.4,4.7-2V419h-4.7V397.9z M64.8,403
	c1.4-1.3,3.2-2.7,4.8-3.7v19.8l-4.8,0V403z M54.6,419.1c1.1-3.6,5.9-11.6,8.1-14l0,14H54.6z M123.6,427.4H90.6v3.4h-37v-6.9h70
	V427.4z M120.4,412.5c1.5,2.2,3.2,6.5,3.2,6.5l-3.2,0L120.4,412.5z"/>
<g>
	<path fill="#5A86B0" d="M29.2,523.5c0-1.7-0.6-3.3-2.5-3.3c-2.5,0-2.7,3.3-2.7,5.1c0,2.1,0.2,4.8,2.9,4.8c1.6,0,2.4-1.4,2.6-2.9
		l3.4,0.2c-0.4,3.5-2.8,5.5-6.2,5.5c-4.5,0-6.7-3.7-6.7-7.8c0-4.2,2.2-7.8,6.8-7.8c3.8,0,5.7,2.2,6.1,5.9L29.2,523.5z"/>
	<path fill="#5A86B0" d="M37.5,532.8h-3.2v-11.3h3.2V532.8z M37.5,520.5h-3.2v-3.2h3.2V520.5z"/>
	<path fill="#5A86B0" d="M42.6,521.5v1.9h0c0.7-1.4,1.6-2.1,3.2-2.1c1.1,0,2.1,0.3,2.8,1.2c0.6,0.8,0.6,2.3,0.6,3.3v7H46v-6.1
		c0-1.2,0.2-2.8-1.5-2.8c-0.6,0-1.1,0.3-1.4,0.8c-0.3,0.6-0.4,1.3-0.4,2v6.1h-3.2v-11.3H42.6z"/>
	<path fill="#5A86B0" d="M57.6,525.8c0-1-0.5-2-1.7-2c-1.8,0-2.1,1.8-2.1,3.2c0,1.4,0.2,3.3,2,3.3c1.2,0,1.7-0.9,1.8-1.9l3.1,0.2
		c-0.3,2.8-2.3,4.5-5.1,4.5c-3.4,0-5.3-2.4-5.3-5.7c0-3.5,2-6,5.5-6c2.6,0,4.7,1.7,4.9,4.3L57.6,525.8z"/>
	<path fill="#5A86B0" d="M65.1,532.8h-3.2v-11.3h3.2V532.8z M65.1,520.5h-3.2v-3.2h3.2V520.5z"/>
	<path fill="#5A86B0" d="M70.3,521.5v1.9h0c0.7-1.4,1.6-2.1,3.2-2.1c1.1,0,2.1,0.3,2.8,1.2c0.6,0.8,0.6,2.3,0.6,3.3v7h-3.2v-6.1
		c0-1.2,0.2-2.8-1.5-2.8c-0.6,0-1.1,0.3-1.4,0.8c-0.3,0.6-0.4,1.3-0.4,2v6.1h-3.2v-11.3H70.3z"/>
	<path fill="#5A86B0" d="M81.8,521.5v1.9h0c0.7-1.4,1.6-2.1,3.2-2.1c1,0,2.1,0.3,2.8,1.2c0.6,0.8,0.6,2.3,0.6,3.3v7h-3.2v-6.1
		c0-1.2,0.2-2.8-1.5-2.8c-0.6,0-1.1,0.3-1.4,0.8c-0.3,0.6-0.4,1.3-0.4,2v6.1h-3.2v-11.3H81.8z"/>
	<path fill="#5A86B0" d="M96.7,527.8c0,0.8,0,1.5-0.4,2.2c-0.4,0.6-1,0.9-1.6,0.9c-0.9,0-1.4-0.6-1.4-1.5c0-1.6,2.3-1.9,3.5-2.1
		V527.8z M100.2,532.8c-0.2-0.6-0.2-1.1-0.2-1.7v-5.3c0-1.3,0.1-2.6-1-3.5c-0.9-0.8-2.4-1-3.5-1c-2.4,0-5,0.8-5.3,3.5l3.1,0.3
		c0-1.1,0.9-1.7,1.9-1.7c0.5,0,1,0.2,1.3,0.5c0.3,0.4,0.3,1,0.3,1.5v0.3c-1.4,0.1-3.2,0.2-4.4,0.7c-1.5,0.6-2.5,1.7-2.5,3.3
		c0,2.1,1.5,3.2,3.5,3.2c1.7,0,2.6-0.6,3.6-2c0,0.6,0,1.2,0.2,1.8H100.2z"/>
	<path fill="#5A86B0" d="M100.6,524.1v-2.6h2l0.3-3.3l2.8-0.2v3.5h2.1v2.6h-2.1v4.5c0,1.3,0,1.8,1.6,1.8l1,0v2.5l-0.2,0
		c-0.6,0.1-1.2,0.2-1.8,0.2c-0.9,0-2.2-0.1-2.9-0.7c-0.9-0.7-0.9-2.1-0.9-3.2v-5H100.6z"/>
	<path fill="#5A86B0" d="M112.8,532.8h-3.2v-11.3h3.2V532.8z M112.8,520.5h-3.2v-3.2h3.2V520.5z"/>
	<path fill="#5A86B0" d="M129.9,526.8c0,1.7,0,3.4-1.2,4.6c-1.2,1.2-3,1.6-4.6,1.6c-1.6,0-3.4-0.2-4.6-1.3c-1.5-1.3-1.6-3.1-1.6-4.9
		v-9.2h3.8v9.2c0,0.7,0,1.7,0.3,2.4c0.5,0.8,1.4,1,2.3,1c0.7,0,1.7-0.2,2.2-0.8c0.5-0.7,0.4-1.7,0.4-2.6v-9.2h3V526.8z"/>
	<path fill="#5A86B0" d="M140,521.9c-0.5-1.3-1.3-1.8-2.6-1.8c-0.9,0-2.1,0.2-2.1,1.4c0,1.1,1.3,1.4,2.2,1.5
		c1.2,0.3,2.9,0.6,3.9,1.3c1.2,0.8,2,2.1,2,3.6c0,1.5-0.7,2.9-1.9,3.8c-1.2,0.9-2.9,1.2-4.4,1.2c-2.8,0-5.4-1.2-6.1-4.2l3.3-0.8
		c0.4,1.6,1.6,2.2,3.1,2.2c1,0,2.4-0.4,2.4-1.6c0-1.3-1.7-1.5-2.6-1.7c-2.7-0.6-5.3-1.4-5.3-4.7c0-1.4,0.6-2.7,1.6-3.6
		c1.1-0.9,2.4-1.2,3.8-1.2c2.6,0,4.8,0.9,5.7,3.6L140,521.9z"/>
	<path fill="#5A86B0" d="M148.2,526.9l1.6-5.4l1.6,5.4H148.2z M152.3,517.5h-4.1l-4.9,15.2h3.1l0.9-3.1h4.9l0.9,3.1h3.8L152.3,517.5
		z"/>
	<path fill="#A6AA14" d="M117.2,491.8c0.1,0,0.2,0,0.3,0c0.4,0,0.8-0.2,1-0.7c0-0.1,2.9-7.3,3.1-7.6c0.1-0.4,0.1-0.4,0.1-0.6
		c0-0.5-0.3-0.9-0.6-1c-0.1,0-4.8-1.9-10.6-1.9c-5.8,0-10.5,1.8-10.6,1.9c-0.3,0.1-0.6,0.5-0.6,1c0,0.2,0,0.3,0.1,0.6
		c0.1,0.4,3,7.6,3.1,7.6c0.2,0.4,0.6,0.7,1,0.7c0.1,0,0.2,0,0.3,0c0.1,0,3.1-1.2,6.8-1.2C114.1,490.6,117.1,491.7,117.2,491.8"/>
	<path fill="#C02F38" d="M97.1,495.5c0.1-0.1,0.1-0.1,0.2-0.2c0.2-0.4,0.2-0.8-0.1-1.2c0-0.1-4.8-6.2-5-6.5
		c-0.2-0.3-0.3-0.3-0.5-0.4c-0.5-0.3-0.9-0.1-1.2,0.1c-0.1,0.1-4,3.2-6.9,8.3c-2.9,5.1-3.6,10.1-3.6,10.2c0,0.3,0.1,0.8,0.5,1.1
		c0.2,0.1,0.2,0.1,0.6,0.2c0.4,0.1,8,1.1,8.1,1.1c0.5,0,0.9-0.2,1.1-0.6c0-0.1,0.1-0.2,0.1-0.2c0-0.1,0.5-3.3,2.4-6.5
		C94.6,497.6,97,495.6,97.1,495.5"/>
	<path fill="#5A86B0" d="M123.6,495.5c-0.1-0.1-0.1-0.1-0.2-0.2c-0.2-0.4-0.2-0.8,0.1-1.2c0-0.1,4.8-6.2,5-6.5
		c0.2-0.3,0.3-0.3,0.5-0.4c0.5-0.3,0.9-0.1,1.2,0.1c0.1,0.1,4,3.2,6.9,8.3c2.9,5.1,3.6,10.1,3.7,10.2c0,0.3-0.1,0.8-0.6,1.1
		c-0.2,0.1-0.2,0.1-0.6,0.2c-0.4,0.1-8,1.1-8.1,1.1c-0.5,0-0.9-0.2-1.1-0.6c0-0.1-0.1-0.2-0.1-0.2c0-0.1-0.5-3.3-2.4-6.5
		C126.2,497.6,123.7,495.6,123.6,495.5"/>
</g>
<g>
	<path fill="#CF0A2C" d="M129.3,603.6c-5.9-0.5-1-3.3-9.2-4.4c-20-2.7-33,5.2-29.2-2.1c1.2-2.3,1.6-2.8,2.9-5.5
		c2.1-4.3,2.2-8.4-4.3-10c-23.8-6.1-65.4,8.3-68.1,9.1c0,0-0.7,0.2-1,0.4c-1,0.5,0.4,0.2,0.4,0.2c10.4-2.8,36.5-8.9,53.8-8.5
		c16.5,0.4,21.7,2.5,15.4,13.5c-4.5,7.9,0,6.7,1.8,6.4c15.9-2.4,30.5-2.4,31.4,0.1c0.6,2,5.3,2.4,5.5,2.4c3.1,0.4,5.3,1.3,3.9,3.6
		c-6.7-1-15.5,1.5-19.3,4.9c-0.2,0.2,0,0.2,0.2,0.1c6.2-3.5,19.2-4.7,19.7-2.7C137,606.3,135.7,604.1,129.3,603.6"/>
	<path fill="#003764" d="M151.7,643.8h1.2v-3.2h1.1c1.4,0,2.2-0.9,2.2-2.3c0-1.3-0.6-2.3-2.1-2.3h-2.4V643.8z M152.9,637h0.8
		c1,0,1.3,0.5,1.3,1.4c0,1-0.6,1.3-1.2,1.3h-0.9V637z M145.4,636.1v5.5c0,1.8,0.9,2.5,2.3,2.5c1.4,0,2.3-0.7,2.3-2.5v-5.5h-1.2v5.6
		c0,1-0.4,1.4-1.1,1.4c-0.7,0-1.1-0.4-1.1-1.4v-5.6H145.4z M141.3,643.1c-0.7,0-1.3-0.5-1.3-3.1c0-2.6,0.6-3.1,1.3-3.1
		c0.7,0,1.3,0.5,1.3,3.1C142.6,642.6,142,643.1,141.3,643.1 M141.3,644c1.7,0,2.5-1.3,2.5-4c0-2.8-0.8-4-2.5-4c-1.7,0-2.5,1.3-2.5,4
		C138.8,642.7,139.6,644,141.3,644 M134,639.5V637h1c0.8,0,1.1,0.4,1.1,1.3c0,0.8-0.4,1.3-1.2,1.3H134z M132.8,643.8h1.2v-3.4h1
		c0.8,0,1.1,0.4,1.1,1.2c0,0.6,0,1,0.1,1.5c0,0.3,0.1,0.5,0.2,0.7h1.4c-0.2-0.1-0.3-0.3-0.4-0.7c0-0.5,0-1.1,0-1.6
		c0-1.1-0.4-1.5-1.2-1.6v0c0.8-0.1,1.3-0.9,1.3-1.9c0-1.5-0.9-2-1.9-2h-2.7V643.8z M130.2,643.8h0.9v-4.1h-2.4v0.9h1.3
		c0,1.7-0.3,2.4-1.3,2.4c-0.8,0-1.2-0.6-1.2-3.1c0-2.5,0.5-3.1,1.3-3.1c0.8,0,1.1,0.7,1.1,1.3v0.2h1.1v-0.1c0-0.7-0.3-2.2-2.2-2.2
		c-1.7,0-2.5,1.3-2.5,4c0,2.8,0.6,4,2.2,4c0.9,0,1.3-0.3,1.6-1.1h0V643.8z M118,643.8h4.2v-1h-3v-2.5h2.7v-1h-2.7v-2.2h2.9v-1H118
		V643.8z M115.3,641.1v0.1c0,0.7-0.1,1.9-1.1,1.9c-0.9,0-1.3-0.6-1.3-3.1c0-2.5,0.4-3.1,1.3-3.1c0.9,0,1.1,0.8,1.1,1.5v0.1h1.2v-0.1
		c0-0.8-0.1-2.4-2.3-2.4c-1.9,0-2.5,1.3-2.5,4c0,2.8,0.6,4,2.5,4c1.8,0,2.3-1.4,2.3-2.8v-0.2H115.3z M105.3,643.8h1.1v-6h0l2.2,6
		h1.5v-7.8h-1.1v5.8h0l-2.2-5.8h-1.5V643.8z M98.3,643.8h1.3l0.5-1.9h2.2l0.5,1.9h1.3l-2-7.8h-1.5L98.3,643.8z M100.3,640.9l0.9-3.8
		h0l0.9,3.8H100.3z M93.6,639.5V637h1c0.8,0,1.1,0.4,1.1,1.3c0,0.8-0.4,1.3-1.2,1.3H93.6z M92.4,643.8h1.2v-3.4h1
		c0.8,0,1.1,0.4,1.1,1.2c0,0.6,0,1,0.1,1.5c0,0.3,0.1,0.5,0.2,0.7h1.4c-0.2-0.1-0.3-0.3-0.4-0.7c0-0.5,0-1.1,0-1.6
		c0-1.1-0.4-1.5-1.2-1.6v0c0.8-0.1,1.3-0.9,1.3-1.9c0-1.5-0.9-2-1.9-2h-2.7V643.8z M86,636.1v5.5c0,1.8,0.9,2.5,2.3,2.5
		c1.4,0,2.3-0.7,2.3-2.5v-5.5h-1.2v5.6c0,1-0.4,1.4-1.1,1.4c-0.7,0-1.1-0.4-1.1-1.4v-5.6H86z M79.8,641.4v0.2c0,1.1,0.4,2.4,2.3,2.4
		c1.5,0,2.5-0.7,2.5-2.3c0-1.1-0.5-1.7-1.5-2.1l-0.8-0.3c-0.8-0.3-1.1-0.7-1.1-1.3c0-0.8,0.5-1.1,1-1.1c0.8,0,1.1,0.4,1.1,1.1v0.2
		h1.2V638c0-0.8-0.2-2-2.1-2c-1.4,0-2.3,0.8-2.3,2.2c0,1.1,0.5,1.7,1.6,2.1l0.8,0.3c0.7,0.2,1.1,0.6,1.1,1.4c0,0.6-0.4,1.1-1.1,1.1
		c-0.8,0-1.2-0.5-1.2-1.4v-0.2H79.8z M73.4,643.8h1.1v-6h0l2.2,6h1.5v-7.8h-1.1v5.8h0l-2.2-5.8h-1.5V643.8z M70.5,643.8h1.2v-7.8
		h-1.2V643.8z"/>
	<path fill="#003764" d="M32.9,626.8c-1.4,0.6-3.2,0.9-5.4,0.9c-5.1,0-7.5-3.4-7.5-6.8c0-4,3.1-7,7.5-7c2.2,0,3.1,0.8,4,0.8
		c0.4,0,0.7-0.1,1-0.5H33v3.7h-0.4c-0.8-2-2.7-3.3-4.9-3.3c-2.9,0-4.5,2.4-4.5,6.5c0,4.2,1.9,5.8,4.5,5.8c1.3,0,2.3-0.3,2.3-1.4v-2
		c0-0.9-0.4-1.4-1.5-1.6v-0.4h5.7v0.4c-1,0.3-1.4,0.8-1.4,2V626.8z"/>
	<path fill="#003764" d="M60.2,619.2l-1.6,4.1h3.2L60.2,619.2z M62.1,624h-3.9l-0.5,1.3c-0.4,0.9-0.3,1.5,0.9,1.8v0.3h-3.4v-0.3
		c1.1-0.2,1.5-1.1,2-2.3l3.1-7.7h1.6l3.3,8.1c0.6,1.4,1.1,1.9,2,2v0.3h-5.4v-0.3c1.3-0.2,1.4-0.6,1-1.5L62.1,624z"/>
	<path fill="#003764" d="M67.8,627.4v-0.3c1.1-0.2,1.4-0.5,1.4-1.5v-7.7h-1.1c-1.3,0-2,0.5-2.4,1.7h-0.3l0.1-2.4h0.3
		c0.1,0.1,0.3,0.1,0.5,0.2c0.2,0,0.4,0.1,0.6,0.1h7c0.4,0,0.8-0.1,1.1-0.2h0.3l0.1,2.4h-0.3c-0.4-1.2-1.1-1.7-2.4-1.7h-1.1v7.7
		c0,1,0.3,1.3,1.3,1.5v0.3H67.8z"/>
	<path fill="#003764" d="M38.6,622.1v-4.1h0.7c1.5,0,2.3,0.7,2.3,2C41.6,621.6,40.7,622.2,38.6,622.1 M54.5,627.4l0.2-2.4h-0.3
		c-0.4,1-0.9,1.9-2.3,1.9h-0.6c-1.1,0-1.5-0.3-1.5-1.2v-3h1.9c0.9,0,1.4,0.4,1.5,1.3h0.4v-3.1h-0.4c-0.2,0.9-0.6,1.3-1.5,1.3H50
		v-4.2h2.1c1.2,0,1.6,0.4,2,1.7h0.3v-2.2h-8.2v0.3c1.1,0.2,1.4,0.5,1.4,1.4v6.5c0,1.5-1.3,2-2.1,1.2c-1-0.9-2.1-4.1-3.3-4.4v0
		c1.6-0.4,2.2-1.4,2.2-2.4c0-1.4-1.2-2.5-4.2-2.5h-5.2v0.3c1.2,0.2,1.4,0.5,1.4,1.4v6.8c0,0.8-0.5,1.2-1.4,1.3v0.3H40v-0.3
		c-1-0.1-1.4-0.5-1.4-1.4v-3.1c1,0,1.3,0,1.8,0.5c0.8,0.8,1.6,3,2.8,4.3H54.5z"/>
	<path fill="#003764" d="M155.4,631.2h0.3c0.2,0,0.3,0,0.3,0.3c0,0.3-0.2,0.3-0.4,0.3h-0.3V631.2z M155.1,632.6h0.2v-0.7h0.3
		l0.4,0.7h0.3l-0.4-0.7c0.2,0,0.4-0.2,0.4-0.4c0-0.3-0.2-0.5-0.6-0.5h-0.6V632.6z M154.3,631.8c0,0.8,0.6,1.4,1.4,1.4
		c0.7,0,1.4-0.6,1.4-1.4c0-0.8-0.6-1.4-1.4-1.4C154.9,630.4,154.3,631,154.3,631.8 M154.5,631.8c0-0.7,0.5-1.2,1.1-1.2
		c0.6,0,1.1,0.5,1.1,1.2c0,0.7-0.5,1.2-1.1,1.2C155,633,154.5,632.5,154.5,631.8"/>
	<path fill="#003764" d="M105,622.1c1.1,0,1.4,0.4,1.5,1.7h0.3l0.5-2.3h-7.5l-0.1,0.3c1,0.2,1.2,0.5,1,1.4l-1.4,6.6
		c-0.2,1.1-0.4,1.4-1.6,1.7l-0.1,0.3h7.7l0.7-2.5h-0.3c-0.5,1-1.3,1.9-2.5,1.9h-0.6c-1,0-1.3-0.3-1.1-1.3l0.6-3h1.8
		c0.8,0,1.2,0.4,1.1,1.3h0.3l0.7-3.2h-0.3c-0.4,0.9-0.8,1.3-1.6,1.3h-1.8l0.9-4.3H105z"/>
	<path fill="#003764" d="M124.5,621.6h-4.8l-0.1,0.3c1,0.3,1.1,0.5,1,1.4l-1.3,6.6c-0.2,1-0.3,1.4-1.6,1.7l-0.1,0.3h4.8l0.1-0.3
		c-1-0.3-1.1-0.5-1-1.4l1.4-6.6c0.2-1,0.3-1.4,1.6-1.7L124.5,621.6z"/>
	<path fill="#003764" d="M132.9,629.5c-1.3,1.1-2.3,1.6-3.5,1.6c-1.9,0-3.3-1.3-2.6-4.8c0.6-2.7,2.1-4.5,3.9-4.5
		c1.7,0,2.7,1.2,2.7,3.3h0.3l0.8-3.8h-0.3c-0.2,0.4-0.5,0.5-0.7,0.5c-0.5,0-1.2-0.6-2.7-0.6c-3.1,0-5.9,2.4-6.6,5.5
		c-0.6,3.1,1.1,5.2,4.1,5.2c1.7,0,3.2-0.7,4.5-2.1L132.9,629.5z"/>
	<path fill="#003764" d="M75.1,626.5l2.9-5.3l0.8,5.3H75.1z M90.5,628.3l-1.2-6.8h-3.7l-0.1,0.3c0.5,0,1,0.3,1.3,0.7l-2.4,6.7
		c-0.4,1.1-0.8,2.1-1.4,2c-0.5,0-1-1-1.2-2.4l-1.7-10.5h-1.5L73,628.5c-0.9,1.5-1.7,2.8-3,3l-0.1,0.4H74l0.1-0.4
		c-1.3-0.4-1.3-1.1-0.6-2.3l1-1.8H79l0.3,2c0.2,1.3,0,1.7-1.6,2l-0.1,0.4h4.5h1.5h2.1l0.1-0.3c-1.1-0.1-1.2-0.9-0.7-2.1l2.1-6h0
		l1.5,8.4h0.4l5-8.4h0l-0.3,5.9c-0.1,1.3-0.5,2-1.6,2.3l-0.1,0.3h5.1l0.1-0.3c-0.9-0.2-1.2-0.7-1.2-1.6l0.4-6.4
		c0.1-0.9,0.4-1.5,1.5-1.7l0.1-0.3h-3.5L90.5,628.3z"/>
	<path fill="#003764" d="M111.3,626.4l0.9-4.2h0.7c1.4,0,1.9,0.7,1.7,2C114.1,625.9,113.1,626.5,111.3,626.4 M116.6,631.1
		c-0.7-0.9-1.1-4.2-2.2-4.5l-0.1,0c1.5-0.4,2.4-1.4,2.6-2.4c0.3-1.4-0.7-2.6-3.4-2.6h-4.8l-0.1,0.3c1,0.2,1.1,0.5,1,1.4l-1.4,7
		c-0.2,0.8-0.7,1.2-1.5,1.3l-0.1,0.3h4.8l0.1-0.3c-0.9-0.1-1.2-0.5-1-1.4l0.6-3.2c0.9,0,1.2,0,1.6,0.5c0.6,0.8,0.8,3.1,1.7,4.4h2.9
		l0.1-0.3C117,631.5,116.8,631.4,116.6,631.1"/>
	<path fill="#003764" d="M136.6,627.6l2.3-4.2l0.7,4.2H136.6z M153.1,621.6l-0.1,0.3c1,0.2,1.1,0.7,0.9,2l-0.9,4.6l-4.4-6.9h-3.1
		l-0.1,0.3c0.4,0.1,0.5,0.2,1.1,1l-1.4,6.9c-0.3,1.2-2.3,3.2-2.9-0.2l-1.3-8.2h-1.4l-4.5,7.9c-0.7,1.2-1.3,2.2-2.3,2.3l-0.1,0.3h3.2
		l0.1-0.3c-1-0.3-1-0.8-0.4-1.8l0.8-1.4h3.5l0.3,1.6c0.2,1,0,1.3-1.3,1.6l-0.1,0.3h4.8h0.2h3.3l0.1-0.3c-1.1-0.2-1.4-0.5-1.1-1.6
		l1.3-6.3l5.5,8.3h0.4l1.7-8.4c0.2-0.9,0.6-1.6,1.8-1.7l0.1-0.3H153.1z"/>
</g>
<g>
	<linearGradient id="SVGID_1_" gradientUnits="userSpaceOnUse" x1="41.2509" y1="691.2509" x2="110.1421" y2="760.142">
		<stop  offset="5.618000e-03" style="stop-color:#98272B"/>
		<stop  offset="0.1461" style="stop-color:#ED272A"/>
		<stop  offset="0.2313" style="stop-color:#ED2A2D"/>
		<stop  offset="0.2918" style="stop-color:#EE3336"/>
		<stop  offset="0.3447" style="stop-color:#EF4345"/>
		<stop  offset="0.3932" style="stop-color:#F1595B"/>
		<stop  offset="0.4387" style="stop-color:#F47577"/>
		<stop  offset="0.482" style="stop-color:#F6999A"/>
		<stop  offset="0.5236" style="stop-color:#FAC2C3"/>
		<stop  offset="0.5627" style="stop-color:#FEF1F1"/>
		<stop  offset="0.573" style="stop-color:#FFFFFF"/>
		<stop  offset="0.5815" style="stop-color:#FCDFE0"/>
		<stop  offset="0.5949" style="stop-color:#F9B4B6"/>
		<stop  offset="0.6093" style="stop-color:#F68E90"/>
		<stop  offset="0.6246" style="stop-color:#F36E70"/>
		<stop  offset="0.6411" style="stop-color:#F15457"/>
		<stop  offset="0.6592" style="stop-color:#EF4043"/>
		<stop  offset="0.6798" style="stop-color:#EE3235"/>
		<stop  offset="0.7048" style="stop-color:#ED292C"/>
		<stop  offset="0.7472" style="stop-color:#ED272A"/>
		<stop  offset="1" style="stop-color:#98272B"/>
	</linearGradient>
	<ellipse fill-rule="evenodd" clip-rule="evenodd" fill="url(#SVGID_1_)" cx="75" cy="725" rx="55" ry="45"/>
	<ellipse fill-rule="evenodd" clip-rule="evenodd" fill="#FFFFFF" cx="75" cy="724.8" rx="49.6" ry="39.6"/>
	<linearGradient id="SVGID_2_" gradientUnits="userSpaceOnUse" x1="75" y1="686.9648" x2="75" y2="762.3227">
		<stop  offset="5.618000e-03" style="stop-color:#2D2F6F"/>
		<stop  offset="0.5843" style="stop-color:#0073BA"/>
	</linearGradient>
	<ellipse fill-rule="evenodd" clip-rule="evenodd" fill="url(#SVGID_2_)" cx="75" cy="724.8" rx="47.4" ry="37.8"/>
	<linearGradient id="SVGID_3_" gradientUnits="userSpaceOnUse" x1="82.8714" y1="710.3701" x2="100.0539" y2="693.1876">
		<stop  offset="5.618000e-03" style="stop-color:#2D2F6F"/>
		<stop  offset="0.5562" style="stop-color:#0073BA"/>
		<stop  offset="0.9663" style="stop-color:#FFFFFF"/>
	</linearGradient>
	<path opacity="0.81" fill-rule="evenodd" clip-rule="evenodd" fill="url(#SVGID_3_)" d="M84.1,690.1c3.5,0,3.8,11.6,4.2,14.2
		c0.7,4.9,6.1,6.9,10.4,9.8c0.1,0.1-0.6-1.6-0.7-1.7c-0.5-5.4-0.1-13.6-2.4-18.5c-0.8-1.7-6.3-4.7-11.3-4.4"/>
	<linearGradient id="SVGID_4_" gradientUnits="userSpaceOnUse" x1="95.5552" y1="719.5533" x2="110.7817" y2="704.3268">
		<stop  offset="5.618000e-03" style="stop-color:#2D2F6F"/>
		<stop  offset="0.5562" style="stop-color:#0073BA"/>
		<stop  offset="0.9663" style="stop-color:#FFFFFF"/>
	</linearGradient>
	<path opacity="0.81" fill-rule="evenodd" clip-rule="evenodd" fill="url(#SVGID_4_)" d="M98.5,695.4c2.9,0,7.2,3.2,9.5,4.8
		c2.4,1.7,5.7,4.6,7.3,7.2c2.1,3.3,2.2,6.4,1.2,10.2c-0.9,3.2-3.3,7.7-7.1,5.4c-3.5-2.2-7.8-6.2-8.5-10.5c-0.4-2.8-0.4-5.7-0.5-8.6
		c-0.1-2.2-0.6-6-1.3-7.9"/>
	<path fill-rule="evenodd" clip-rule="evenodd" fill="#FFFFFF" d="M106.7,720.6c0-0.2-0.1-0.4-0.2-0.5c-0.1-0.1-0.4-0.2-0.7-0.2H105
		v2.4h0.3v-1.1h0.5l0.5,1.1h0.3l-0.5-1.1c0.2,0,0.3-0.1,0.4-0.2C106.7,720.9,106.7,720.8,106.7,720.6L106.7,720.6L106.7,720.6z
		 M106.3,721c-0.1,0.1-0.3,0.1-0.5,0.1h-0.4v-0.8h0.4c0.2,0,0.3,0,0.5,0.1c0.1,0.1,0.1,0.2,0.1,0.3
		C106.4,720.8,106.3,720.9,106.3,721L106.3,721z"/>
	<path fill-rule="evenodd" clip-rule="evenodd" fill="#FFFFFF" d="M107.6,720.4c-0.1-0.3-0.3-0.5-0.4-0.7c-0.2-0.1-0.4-0.3-0.6-0.4
		c-0.3-0.1-0.5-0.1-0.7-0.1c-0.3,0-0.5,0-0.8,0.1c-0.2,0.1-0.4,0.2-0.6,0.4c-0.1,0.2-0.3,0.4-0.4,0.7c-0.1,0.2-0.1,0.5-0.1,0.8
		c0,0.3,0.1,0.5,0.1,0.8c0.1,0.3,0.2,0.5,0.4,0.7c0.2,0.2,0.4,0.3,0.6,0.4c0.2,0.1,0.5,0.1,0.8,0.1c0.2,0,0.5,0,0.7-0.1
		c0.3-0.1,0.5-0.2,0.7-0.4c0.1-0.2,0.3-0.4,0.4-0.7c0.1-0.2,0.1-0.5,0.1-0.8C107.7,720.9,107.6,720.6,107.6,720.4L107.6,720.4
		L107.6,720.4z M107.3,721.9c-0.1,0.2-0.2,0.4-0.3,0.5c-0.2,0.2-0.4,0.3-0.6,0.4c-0.2,0.1-0.4,0.1-0.6,0.1c-0.2,0-0.5-0.1-0.7-0.1
		c-0.2-0.1-0.3-0.2-0.5-0.4c-0.1-0.1-0.3-0.3-0.3-0.5c-0.1-0.2-0.1-0.5-0.1-0.7c0-0.2,0.1-0.5,0.1-0.7c0.1-0.2,0.2-0.4,0.4-0.5
		c0.1-0.2,0.3-0.3,0.5-0.4c0.2-0.1,0.4-0.1,0.7-0.1c0.2,0,0.4,0.1,0.6,0.1c0.2,0.1,0.4,0.2,0.6,0.4c0.1,0.1,0.3,0.3,0.3,0.5
		c0.1,0.2,0.1,0.5,0.1,0.7C107.5,721.5,107.4,721.7,107.3,721.9L107.3,721.9z"/>
	<g>
		<path fill-rule="evenodd" clip-rule="evenodd" fill="#231F20" d="M56.4,718.5h-3.6c0.1,0.9,0.3,2.4,0.5,3.2v15.8h4.2v-11.1
			c0.1-2.8,1.4-4.7,4.1-4.2v-4.1c-2.3,0-3.1,0.5-4.2,1.5C57.1,719.2,56.9,719,56.4,718.5L56.4,718.5z"/>
		<path fill-rule="evenodd" clip-rule="evenodd" fill="#231F20" d="M45.1,722.8c4-1.2,6.1-3.2,6.8-10.6c1-10.6,2.3-12.4,7.6-12.5
			c6.3-0.1,7.6,4.5,7.6,15.1h4.5c0.2-17.7-7.1-18.4-11.8-18.3c-6.4,0.1-11.5,3.5-11.9,12.1c-0.3,5.7-0.2,7.7-2,10.6
			c-1.1,1.8-4.7,3-5.1,1.6v-12.2h-4.2v28.9H41v-11.9c1.4-1,4.4,0.5,4.8,3.1c0.3,2.1,0.7,8.4,1.6,8.8h3.7c0.2,0,0.3-0.8,0.1-2.1
			c-0.8-7.3-1.7-10.2-6.2-11.8C44.6,723.5,44.5,723,45.1,722.8L45.1,722.8z"/>
		<path fill-rule="evenodd" clip-rule="evenodd" fill="#231F20" d="M76.1,727.7c0-5.7-2.1-10.3-7.2-10.3c-5.1,0-7.2,4.6-7.2,10.3
			c0,5.6,2.5,10.3,7.2,10.3S76.1,733.3,76.1,727.7L76.1,727.7L76.1,727.7z M65.8,727.7c0-3.4,0.7-6.3,2.9-6.4
			c2.3-0.1,3.1,2.7,3.1,6.4c0,3.7-0.7,6.5-2.9,6.5C66.5,734.1,65.8,731.1,65.8,727.7L65.8,727.7z"/>
		<path fill-rule="evenodd" clip-rule="evenodd" fill="#231F20" d="M112.4,719.8c-0.3-0.5-0.5-0.6-1-1.2h-3.6
			c0.1,0.9,0.3,2.4,0.5,3.2v15.7l4.2-0.1v-11c0-2.8,1.3-4.7,4-4.2v-4.1C114.2,718.2,113.4,718.7,112.4,719.8L112.4,719.8z"/>
		<path fill-rule="evenodd" clip-rule="evenodd" fill="#231F20" d="M87.6,718.3c-0.3,0.3-0.6,0.3-0.8,0.8c-0.5-0.6-1.6-1.2-3.4-1.2
			c-1.7,0.1-3.5,1-4.6,3c-1,1.6-1.1,4.4-1.2,7.3c-0.1,2.9,0.4,4.9,1.4,6.6c1.7,3,5.9,3.8,7.9,1.6v7.4c0,6.2-3.7,9.5-8,9.5
			c-3.5,0.1-7-2.1-7-9.1v-3.1h-4.6c0.1,6.9,1.2,10.4,4.8,13.1c3.1,2.4,9.4,3,13.9-0.1c4.6-3.4,4.9-7,4.9-13.4v-6.7l-0.2-12.5
			c0-1.3,0.3-2.5,0.8-3.4H87.6L87.6,718.3L87.6,718.3z M86.5,731.5c0,0.8-1,2.3-1.8,2.3c-2.3,0-2.7-1.8-2.8-5.8
			c0.1-5.8,1.2-6.2,3.1-6.2c1.1,0.1,1.6,0.9,1.6,1.7C87,726.1,87,728.8,86.5,731.5L86.5,731.5z"/>
		<path fill-rule="evenodd" clip-rule="evenodd" fill="#231F20" d="M99.8,717.6c-1.9-0.1-3.6,0.6-4.8,2.3c-1.4,2-2,4.5-2,7.8
			c0,3.4,0.8,6,2.1,7.8c1.2,1.6,2.7,2.2,4.9,2.2c1.8,0,3.3-0.5,4.4-1.8c1.2-1.4,2-3.5,2-5.8l-3.9-0.1c-0.3,3.2-1.4,4-2.9,4
			c-1.6,0-2.5-3.8-2.4-5.9h9.3c0.1-3.7,0-6.2-1.6-8.6C103.3,717.8,102.4,717.6,99.8,717.6L99.8,717.6L99.8,717.6z M102,725.6h-4.1
			c-0.3,0-0.4-0.8-0.2-1.8c0.2-1.2,0.3-2.5,2.3-2.6c1.8-0.1,2,1.4,2.3,2.6C102.4,724.8,102.4,725.6,102,725.6L102,725.6z"/>
	</g>
	<g>
		<path fill="#FFFFFF" d="M57.1,717.2h-3.6c0.1,0.9,0.3,2.4,0.5,3.2v15.8h4.2v-11.1c0.1-2.8,1.4-4.7,4.1-4.2v-4.1
			c-2.3,0-3.1,0.5-4.2,1.5C57.7,717.9,57.5,717.7,57.1,717.2L57.1,717.2z"/>
		<path fill="#FFFFFF" d="M45.7,721.5c4-1.2,6.1-3.2,6.8-10.6c1-10.6,2.3-12.4,7.6-12.5c6.3-0.1,7.6,4.5,7.6,15.1h4.5
			c0.2-17.7-7.1-18.4-11.8-18.3c-6.4,0.1-11.5,3.5-11.9,12.1c-0.3,5.7-0.2,7.7-2,10.6c-1.1,1.8-4.7,3-5.1,1.6v-12.2h-4.2v28.9h4.4
			v-11.9c1.4-1,4.4,0.5,4.8,3.1c0.3,2.1,0.7,8.4,1.6,8.8h3.7c0.2,0,0.3-0.8,0.1-2.1c-0.8-7.3-1.7-10.2-6.2-11.8
			C45.2,722.2,45.1,721.7,45.7,721.5L45.7,721.5z"/>
		<path fill="#FFFFFF" d="M76.7,726.4c0-5.7-2.1-10.3-7.2-10.3c-5.1,0-7.2,4.6-7.2,10.3c0,5.6,2.5,10.3,7.2,10.3
			S76.7,732,76.7,726.4L76.7,726.4L76.7,726.4z M66.4,726.4c0-3.4,0.8-6.3,2.9-6.4c2.3-0.1,3.1,2.7,3.1,6.4s-0.7,6.5-2.9,6.5
			C67.2,732.8,66.4,729.8,66.4,726.4L66.4,726.4z"/>
		<path fill="#FFFFFF" d="M113,718.5c-0.3-0.5-0.5-0.6-1-1.2h-3.6c0.1,0.9,0.3,2.4,0.5,3.2v15.7l4.2-0.1v-11c0-2.8,1.3-4.7,4-4.2
			v-4.1C114.9,716.9,114,717.5,113,718.5L113,718.5z"/>
		<path fill="#FFFFFF" d="M88.2,717.1c-0.3,0.3-0.6,0.3-0.7,0.8c-0.5-0.6-1.6-1.2-3.4-1.2c-1.7,0.1-3.5,1-4.6,3
			c-1,1.6-1.1,4.4-1.2,7.3c-0.1,2.9,0.4,4.9,1.4,6.6c1.7,3,5.9,3.8,7.9,1.6v7.4c0,6.2-3.7,9.5-8,9.5c-3.5,0.1-7-2.1-7-9.1V740h-4.6
			c0.1,6.9,1.2,10.4,4.8,13.1c3.1,2.4,9.4,3,13.9-0.1c4.6-3.4,4.9-7,4.9-13.4V733l-0.2-12.5c0-1.3,0.3-2.5,0.8-3.4H88.2L88.2,717.1
			L88.2,717.1z M87.1,730.2c0,0.8-1,2.3-1.8,2.3c-2.3,0-2.7-1.8-2.8-5.8c0.1-5.8,1.2-6.2,3.1-6.2c1.1,0.1,1.6,0.9,1.6,1.7
			C87.6,724.8,87.6,727.5,87.1,730.2L87.1,730.2z"/>
		<path fill="#FFFFFF" d="M100.5,716.3c-1.9-0.1-3.6,0.6-4.8,2.3c-1.4,2-2,4.5-2,7.8c0,3.4,0.8,6,2.1,7.8c1.2,1.6,2.7,2.2,4.9,2.2
			c1.8,0,3.3-0.5,4.4-1.8c1.2-1.4,2-3.5,2-5.8l-3.9-0.1c-0.3,3.2-1.4,4-2.9,4c-1.6,0-2.5-3.8-2.4-5.9h9.3c0.1-3.7,0-6.2-1.6-8.6
			C103.9,716.5,103,716.4,100.5,716.3L100.5,716.3L100.5,716.3z M102.6,724.3h-4.1c-0.3,0-0.4-0.8-0.2-1.8c0.2-1.2,0.3-2.5,2.3-2.6
			c1.8-0.1,2,1.4,2.3,2.6C103,723.5,103,724.3,102.6,724.3L102.6,724.3z"/>
	</g>
	<g>
		<linearGradient id="SVGID_5_" gradientUnits="userSpaceOnUse" x1="70.529" y1="694.0071" x2="70.529" y2="753.4214">
			<stop  offset="1.123600e-02" style="stop-color:#FFFFFF"/>
			<stop  offset="1.842995e-02" style="stop-color:#F4F7FA"/>
			<stop  offset="3.532556e-02" style="stop-color:#E0E8F2"/>
			<stop  offset="5.461143e-02" style="stop-color:#D2DEEC"/>
			<stop  offset="7.814471e-02" style="stop-color:#C9D8E8"/>
			<stop  offset="0.118" style="stop-color:#C7D6E7"/>
			<stop  offset="0.2528" style="stop-color:#FFFFFF"/>
			<stop  offset="0.2949" style="stop-color:#F4F5F7"/>
			<stop  offset="0.3564" style="stop-color:#EBEEF2"/>
			<stop  offset="0.4607" style="stop-color:#E9ECF0"/>
			<stop  offset="0.7978" style="stop-color:#7D98CE"/>
		</linearGradient>
		<path fill-rule="evenodd" clip-rule="evenodd" fill="url(#SVGID_5_)" d="M68.3,735.3c2.2,0.8,4.8,0.3,6.5-1.2
			c1.7-1.6,2.4-3.8,2.8-6c0.8-4.6-0.2-12.2-6-12.9c0.1,0,0.1,0,0.2,0c-0.8-0.1-1.8-0.1-2.6,0c0.1,0,0.2,0,0.3,0
			c-4.4,0.5-6.2,5.4-6.2,9.3C63.3,728.6,64,733.7,68.3,735.3 M67.4,725.4c0-2.1,0.3-6.9,3.4-6.4c1.4,0.2,1.9,1.8,2.3,3
			c0.2,1.4,0.4,2.8,0.3,4.2c-0.1,1.9-0.4,6-3.1,5.7C67.6,731.6,67.4,727.4,67.4,725.4"/>
		<linearGradient id="SVGID_6_" gradientUnits="userSpaceOnUse" x1="101.3606" y1="694.0135" x2="101.3606" y2="753.4615">
			<stop  offset="1.123600e-02" style="stop-color:#FFFFFF"/>
			<stop  offset="1.842995e-02" style="stop-color:#F4F7FA"/>
			<stop  offset="3.532556e-02" style="stop-color:#E0E8F2"/>
			<stop  offset="5.461143e-02" style="stop-color:#D2DEEC"/>
			<stop  offset="7.814471e-02" style="stop-color:#C9D8E8"/>
			<stop  offset="0.118" style="stop-color:#C7D6E7"/>
			<stop  offset="0.2528" style="stop-color:#FFFFFF"/>
			<stop  offset="0.2949" style="stop-color:#F4F5F7"/>
			<stop  offset="0.3564" style="stop-color:#EBEEF2"/>
			<stop  offset="0.4607" style="stop-color:#E9ECF0"/>
			<stop  offset="0.7978" style="stop-color:#7D98CE"/>
		</linearGradient>
		<path fill-rule="evenodd" clip-rule="evenodd" fill="url(#SVGID_6_)" d="M108,721.9c-0.1-0.8-0.3-1.6-0.5-2.5
			c-0.2-0.4-0.4-0.9-0.6-1.3c-0.2-0.4-0.5-0.7-0.7-1.1c-1.5-1.5-3-1.6-5-1.7c-4.1-0.1-6.3,4.3-6.5,7.9c-0.3,1.7-0.3,3.8,0.1,5.5
			c0.4,1.8,0.9,3.5,2.1,5c2.2,2.6,7.7,2.5,9.5-0.6c0.4-0.8,0.9-1.5,1.1-2.4c0.3-0.9,0.3-1.9,0.4-2.8c-0.9,0-1.7,0-2.6,0
			c-0.4,0-0.8,0-1.2,0c-0.1,0-0.4,1.9-0.5,2.2c-0.3,0.8-0.8,1.5-1.6,1.8c-0.7,0.2-1.4,0.1-1.9-0.5c-1.1-1.4-1.3-3.6-1.3-5.3
			c2,0,4,0,6,0c1,0,2,0,3,0c0.5,0,0.4-0.3,0.4-0.8C108.2,724.1,108.1,723,108,721.9 M99.4,723.1c-0.3-0.7,0-1.7,0.2-2.4
			c0.2-0.8,0.7-1.3,1.5-1.5c0.9-0.2,1.8-0.1,2.3,0.7c0.5,0.8,0.6,1.9,0.6,2.7c0,0.4,0,0.8-0.5,0.8c-0.5,0-1,0-1.5,0
			C101.6,723.3,99.4,723.6,99.4,723.1"/>
		<linearGradient id="SVGID_7_" gradientUnits="userSpaceOnUse" x1="58.8318" y1="694.065" x2="58.8318" y2="753.3803">
			<stop  offset="1.123600e-02" style="stop-color:#FFFFFF"/>
			<stop  offset="1.842995e-02" style="stop-color:#F4F7FA"/>
			<stop  offset="3.532556e-02" style="stop-color:#E0E8F2"/>
			<stop  offset="5.461143e-02" style="stop-color:#D2DEEC"/>
			<stop  offset="7.814471e-02" style="stop-color:#C9D8E8"/>
			<stop  offset="0.118" style="stop-color:#C7D6E7"/>
			<stop  offset="0.2528" style="stop-color:#FFFFFF"/>
			<stop  offset="0.2949" style="stop-color:#F4F5F7"/>
			<stop  offset="0.3564" style="stop-color:#EBEEF2"/>
			<stop  offset="0.4607" style="stop-color:#E9ECF0"/>
			<stop  offset="0.7978" style="stop-color:#7D98CE"/>
		</linearGradient>
		<path fill-rule="evenodd" clip-rule="evenodd" fill="url(#SVGID_7_)" d="M59.4,717c-0.1,0.1-0.2,0.2-0.3,0.3
			c-0.1-0.2-0.9-1.2-1-1.2c-0.4,0-0.8,0-1.1,0c-0.8,0-1.6,0-2.4,0c0,1.3,0.5,2.6,0.5,4c0,0.8,0,1.5,0,2.3c0,1.5,0,2.9,0,4.4
			c0,1.5,0,3,0,4.5c0,0.7,0,1.4,0,2.1c0,0.3,0,0.7,0,1c0,0.3-0.1,0.7,0.2,0.7c1,0,2,0,3,0c0.3,0,0.6,0,0.9,0c0,0,0-0.8,0-0.9
			c0-1.5,0-2.9,0-4.4c0-1.5,0-3,0-4.4c0-0.9,0-1.8,0.1-2.7c0.2-2.1,2-3.2,3.9-2.9c0-1.1,0-2.1,0-3.2c0-0.3,0-0.6,0-0.9
			c0-0.1-0.7,0-0.8,0C61.3,715.9,60.2,716.3,59.4,717"/>
		<linearGradient id="SVGID_8_" gradientUnits="userSpaceOnUse" x1="81.0103" y1="693.9039" x2="81.0103" y2="753.4005">
			<stop  offset="1.123600e-02" style="stop-color:#FFFFFF"/>
			<stop  offset="1.842995e-02" style="stop-color:#F4F7FA"/>
			<stop  offset="3.532556e-02" style="stop-color:#E0E8F2"/>
			<stop  offset="5.461143e-02" style="stop-color:#D2DEEC"/>
			<stop  offset="7.814471e-02" style="stop-color:#C9D8E8"/>
			<stop  offset="0.118" style="stop-color:#C7D6E7"/>
			<stop  offset="0.2528" style="stop-color:#FFFFFF"/>
			<stop  offset="0.2949" style="stop-color:#F4F5F7"/>
			<stop  offset="0.3564" style="stop-color:#EBEEF2"/>
			<stop  offset="0.4607" style="stop-color:#E9ECF0"/>
			<stop  offset="0.7978" style="stop-color:#7D98CE"/>
		</linearGradient>
		<path fill-rule="evenodd" clip-rule="evenodd" fill="url(#SVGID_8_)" d="M89.3,716.1c-0.3,0.3-0.6,0.4-0.7,0.8c-2-2.4-6-1-7.6,1.1
			c-1.6,2.2-1.3,4.9-1.7,7.4c0,2.7,0.1,5.2,1.6,7.5c1.5,2.6,5.5,3.5,7.7,1.3c0,1.5,0,2.9,0,4.4c0,2.3,0.2,4.6-0.5,6.8
			c-0.9,2.9-3.1,5.1-6.1,5.6c-2.4,0.4-4.9-0.2-6.4-2.1c-1.9-2.3-1.9-5.4-1.9-8.2c0-0.5,0-1,0-1.5c0-0.3,0.1-0.4-0.2-0.4
			c-1.1,0-2.1,0-3.2,0c-0.4,0-0.7,0-1.1,0c-0.1,0,0,2,0,2.2c0.1,1.7,0.3,3.5,0.7,5.1c0.8,2.8,2.6,5.3,5.3,6.6
			c3.4,1.7,7.8,1.6,11.2-0.1c2.9-1.4,5.1-4.1,5.8-7.3c0.6-2.7,0.5-5.5,0.5-8.2c0-1.5,0-3,0-4.5c0-2.4,0-4.9-0.1-7.4
			c-0.1-1.2,0-2.5,0-3.7c0-2-0.2-3.9,0.8-5.8C91.8,716.1,90.5,716.1,89.3,716.1 M88.5,724.8c0,1.1-0.1,2.2-0.2,3.3
			c-0.2,1.2-0.2,2.3-1.3,3.1c-1.1,0.8-2.5-0.2-2.9-1.2c-0.5-1.2-0.5-2.7-0.5-4c0-2.1-0.3-6.4,2.6-6.6c1.1-0.1,2,0.4,2,1.6
			C88.2,722.4,88.5,723.6,88.5,724.8"/>
		<linearGradient id="SVGID_9_" gradientUnits="userSpaceOnUse" x1="113.8273" y1="694.0717" x2="113.8273" y2="753.3766">
			<stop  offset="1.123600e-02" style="stop-color:#FFFFFF"/>
			<stop  offset="1.842995e-02" style="stop-color:#F4F7FA"/>
			<stop  offset="3.532556e-02" style="stop-color:#E0E8F2"/>
			<stop  offset="5.461143e-02" style="stop-color:#D2DEEC"/>
			<stop  offset="7.814471e-02" style="stop-color:#C9D8E8"/>
			<stop  offset="0.118" style="stop-color:#C7D6E7"/>
			<stop  offset="0.2528" style="stop-color:#FFFFFF"/>
			<stop  offset="0.2949" style="stop-color:#F4F5F7"/>
			<stop  offset="0.3564" style="stop-color:#EBEEF2"/>
			<stop  offset="0.4607" style="stop-color:#E9ECF0"/>
			<stop  offset="0.7978" style="stop-color:#7D98CE"/>
		</linearGradient>
		<path fill-rule="evenodd" clip-rule="evenodd" fill="url(#SVGID_9_)" d="M114.5,717c-0.2,0.2-0.3,0.3-0.5,0.5
			c-0.2-0.4-0.6-0.6-0.8-0.9c-0.2-0.3-0.1-0.2-0.3-0.2c-0.5,0-1.1,0-1.6,0c-0.5,0-1,0-1.5,0c-0.5,0-0.2,0.5-0.2,1
			c0.1,0.8,0.4,1.7,0.4,2.5c0,0.4,0,0.8,0,1.2c0,0.7,0,1.4,0,2.1c0,3,0,5.9,0,8.9c0,0.8,0,1.6,0,2.3c0,0.1,0,0.9,0,0.9
			c0.4,0,0.7,0,1.1,0c1,0,2,0,3.1,0c0.1,0,0.1-1.7,0.1-2c0-3,0-5.9,0-8.9c0-1.2,0.1-2.4,0.9-3.3c0.8-1,1.9-1.1,3.1-1.1c0-1,0-2,0-3
			c0-0.2,0-0.4,0-0.6c0-0.1,0-0.4,0-0.4c-0.3,0-0.7,0-1,0C116.2,716.1,115.3,716.4,114.5,717"/>
		<linearGradient id="SVGID_10_" gradientUnits="userSpaceOnUse" x1="55.7051" y1="694.0094" x2="55.7051" y2="753.4479">
			<stop  offset="1.123600e-02" style="stop-color:#FFFFFF"/>
			<stop  offset="1.842995e-02" style="stop-color:#F4F7FA"/>
			<stop  offset="3.532556e-02" style="stop-color:#E0E8F2"/>
			<stop  offset="5.461143e-02" style="stop-color:#D2DEEC"/>
			<stop  offset="7.814471e-02" style="stop-color:#C9D8E8"/>
			<stop  offset="0.118" style="stop-color:#C7D6E7"/>
			<stop  offset="0.2528" style="stop-color:#FFFFFF"/>
			<stop  offset="0.2949" style="stop-color:#F4F5F7"/>
			<stop  offset="0.3564" style="stop-color:#EBEEF2"/>
			<stop  offset="0.4607" style="stop-color:#E9ECF0"/>
			<stop  offset="0.7978" style="stop-color:#7D98CE"/>
		</linearGradient>
		<path fill-rule="evenodd" clip-rule="evenodd" fill="url(#SVGID_10_)" d="M53.6,709.3c0.3-3,0.5-6.3,1.8-9
			c0.9-1.7,2.3-2.5,4.1-2.7c2.2-0.2,4.7-0.1,6.4,1.5c1.9,1.8,2.3,4.9,2.5,7.4c0.2,2,0.2,3.9,0.2,5.9c0,0.3,0.4,0.2,0.7,0.2
			c0.6,0,1.2,0,1.8,0c0.5,0,1,0,1.6,0c0.7,0,0.5-0.2,0.5-0.9c0-1.9-0.1-3.7-0.3-5.6c-0.6-4.8-2.4-10.2-7.6-11.5
			c-4.3-1.1-9.8-0.2-12.8,3.2c-2.3,2.7-2.8,6.1-3,9.5c-0.2,3.4,0,7.3-2.4,10c-0.7,0.7-1.7,1.3-2.6,1.5c-0.6,0.2-1.9,0.4-2.1-0.4
			c-0.2-0.6,0-1.5,0-2.1c0-1.5,0-3,0-4.5c0-1.6,0-3.1,0-4.7c0-0.1,0-0.9,0-0.9c-0.4,0-0.8,0-1.2,0c-1,0-2,0-3,0
			c-0.1,0,0,16.4,0,17.9c0,3,0,5.9,0,8.9c0,0.7,0,1.5,0,2.2c0,0.1,2.3,0.1,2.5,0.1c0.5,0,1,0,1.5,0c0.4,0,0.4,0.1,0.4-0.3
			c0-0.8,0-1.5,0-2.3c0-3,0-6,0-8.9c0-0.2-0.1-0.4,0.2-0.5c0.3-0.2,0.8-0.2,1.2-0.2c0.9,0.1,1.9,0.7,2.5,1.4
			c1.2,1.5,1.1,3.5,1.4,5.3c0.1,0.9,0.2,1.8,0.3,2.7c0.1,0.8,0.2,2.2,0.8,2.8c0.2,0.2,0.7,0.1,0.9,0.1c0.6,0,1.2,0,1.9,0
			c0.7,0,1.2,0.2,1.3-0.6c0.1-0.8-0.2-1.6-0.2-2.4c-0.1-0.8-0.2-1.6-0.3-2.4c-0.4-3-1.4-6.3-4.2-7.9c-0.4-0.2-1.6-0.4-1.8-0.8
			c-0.2-0.5,1.2-0.8,1.5-0.9c1.4-0.5,2.7-1.3,3.5-2.6c0.8-1.2,1.2-2.5,1.6-4c0.2-0.7,0.3-1.5,0.4-2.3
			C53.5,710.7,53.4,709.9,53.6,709.3"/>
	</g>
	<g>
		<path fill-rule="evenodd" clip-rule="evenodd" fill="#FFFFFF" d="M99,741.8c0-0.2-0.1-0.4-0.2-0.5c-0.1-0.1-0.4-0.2-0.7-0.2h-0.8
			v2.4h0.3v-1.1h0.5l0.5,1.1H99l-0.5-1.1c0.2,0,0.3-0.1,0.4-0.2C99,742.1,99,742,99,741.8L99,741.8L99,741.8z M98.5,742.2
			c-0.1,0.1-0.3,0.1-0.5,0.1h-0.4v-0.8h0.4c0.2,0,0.3,0,0.5,0.1c0.1,0.1,0.1,0.2,0.1,0.3C98.7,742,98.6,742.1,98.5,742.2L98.5,742.2
			z"/>
		<path fill-rule="evenodd" clip-rule="evenodd" fill="#FFFFFF" d="M99.8,741.6c-0.1-0.3-0.3-0.5-0.4-0.7c-0.2-0.1-0.4-0.3-0.6-0.4
			c-0.3-0.1-0.5-0.1-0.8-0.1c-0.3,0-0.5,0-0.7,0.1c-0.2,0.1-0.4,0.2-0.6,0.4c-0.1,0.2-0.3,0.4-0.4,0.7c-0.1,0.2-0.1,0.5-0.1,0.8
			c0,0.3,0.1,0.5,0.1,0.8c0.1,0.3,0.2,0.5,0.4,0.7c0.2,0.2,0.4,0.3,0.6,0.4c0.2,0.1,0.5,0.1,0.7,0.1c0.2,0,0.5,0,0.7-0.1
			c0.3-0.1,0.5-0.2,0.7-0.4c0.1-0.2,0.3-0.4,0.4-0.7c0.1-0.2,0.1-0.5,0.1-0.8C100,742.1,99.9,741.8,99.8,741.6L99.8,741.6
			L99.8,741.6z M99.6,743.1c-0.1,0.2-0.2,0.4-0.3,0.5c-0.2,0.2-0.4,0.3-0.6,0.4c-0.2,0.1-0.4,0.1-0.6,0.1c-0.2,0-0.5-0.1-0.7-0.1
			c-0.2-0.1-0.3-0.2-0.5-0.4c-0.1-0.1-0.3-0.3-0.3-0.5c-0.1-0.2-0.1-0.5-0.1-0.7c0-0.2,0.1-0.5,0.1-0.7c0.1-0.2,0.2-0.4,0.4-0.5
			c0.1-0.2,0.3-0.3,0.5-0.4c0.2-0.1,0.4-0.1,0.7-0.1c0.2,0,0.4,0.1,0.6,0.1c0.2,0.1,0.4,0.2,0.6,0.4c0.1,0.1,0.3,0.3,0.3,0.5
			c0.1,0.2,0.1,0.5,0.1,0.7C99.8,742.7,99.7,742.9,99.6,743.1L99.6,743.1z"/>
	</g>
</g>
<g>
	<path fill="#387C2C" d="M141.5,807.5h7.4v3.2h0.1c1.2-2.4,2.9-3.7,5.7-3.7c0.8,0,1.5,0.1,2.3,0.3v6.7c-0.8-0.3-1.5-0.5-3-0.5
		c-3,0-4.7,1.8-4.7,6v7.9h-7.7V807.5z"/>
	<path fill="#387C2C" d="M24.5,827.5h1.3V800h-1.3V827.5z M40.3,800l-4,16.2h-0.1l-4-16.2h-5.5v27.5h1.4v-17.6h0.1l4.8,17.6h6.4
		l4.8-17.6h0.1v17.6h8.1V800H40.3z M20,827.5h1.3V800H20V827.5z M22.2,827.5h1.3V800h-1.3V827.5z"/>
	<path fill="#387C2C" d="M91.7,815.4c-2.6-0.8-5.5-1-6.8-1.5c-0.4-0.2-0.9-0.5-0.9-1c0-1.3,1.2-1.5,2.3-1.5c0.6,0,1.2,0.2,1.7,0.6
		c0.5,0.3,0.9,0.8,0.9,1.5h7c-0.2-5.1-5.5-6.3-9.8-6.3c-4.1,0-9.6,1.3-9.6,6.4c0,3.4,2.4,5.3,8.3,6.3c3.6,0.6,4.3,1,4.3,2.1
		c0,1.2-1.6,1.5-2.6,1.5c-0.9,0-1.7-0.2-2.1-0.6c-0.4-0.3-0.6-0.7-0.8-1h-7.5c0.6,4.6,5.5,6.3,10,6.3c4.9,0,10.3-1.5,10.3-7
		C96.5,817.7,94.3,816.2,91.7,815.4 M112.5,815.4c-2.6-0.8-5.5-1-6.8-1.5c-0.4-0.2-0.9-0.5-0.9-1c0-1.3,1.2-1.5,2.3-1.5
		c0.6,0,1.2,0.2,1.7,0.6c0.5,0.3,0.9,0.8,0.9,1.5h7c-0.2-5.1-5.5-6.3-9.8-6.3c-4.1,0-9.6,1.3-9.6,6.4c0,3.4,2.4,5.3,8.3,6.3
		c3.6,0.6,4.3,1,4.3,2.1c0,1.2-1.6,1.5-2.6,1.5c-0.9,0-1.7-0.2-2.1-0.6c-0.4-0.3-0.6-0.7-0.8-1H97c0.6,4.6,5.5,6.3,10,6.3
		c4.9,0,10.3-1.5,10.3-7C117.4,817.7,115.1,816.2,112.5,815.4 M129.5,811.9c2,0,3.4,1.5,3.4,3.4h-7.4
		C125.8,813.1,127.2,811.9,129.5,811.9 M129.4,823.1c-2.4,0-3.7-1.6-3.9-3.9h14.8c0-7.8-3.5-12.2-11.5-12.2
		c-6.4,0-10.7,4.7-10.7,10.6c0,6.7,4.9,10.4,11.4,10.4c4.6,0,8.9-2,10.4-6.3h-7.2C132,822.6,130.6,823.1,129.4,823.1 M60.8,815.3
		c0.4-2.2,1.7-3.4,4-3.4c2,0,3.4,1.5,3.4,3.4H60.8z M64.1,807c-6.4,0-10.7,4.7-10.7,10.6c0,6.7,4.9,10.4,11.4,10.4
		c4.6,0,8.9-2,10.4-6.3h-7.2c-0.6,1-2,1.4-3.2,1.4c-2.4,0-3.7-1.6-3.9-3.9h14.8C75.6,811.4,72.1,807,64.1,807"/>
</g>
<g>
	<path fill-rule="evenodd" clip-rule="evenodd" fill="#EC2029" d="M117.4,884.2c10.5,0,19.7,2,27,5.8c7.4,3.9,11.4,8.4,11.6,14.1
		c0.2,5.4-3.3,10.2-11,14.1c-7.3,3.7-16.7,5.5-27.6,5.8c-11,0-20.2-1.8-27.7-5.7c-7.5-3.7-11.1-8.4-11-14
		c0.2-5.9,4.2-10.5,11.6-14.3C97.7,886.3,106.8,884.2,117.4,884.2L117.4,884.2z M117.4,881.8c10.9,0,20.1,2.2,27.9,6.6
		c7.8,4.5,11.7,9.9,11.7,16c0,6.3-3.9,11.4-11.7,16.1c-7.8,4.2-17,6.4-27.9,6.4c-11,0-20.2-2.2-28-6.4c-7.8-4.7-11.7-9.9-11.5-16.1
		c-0.2-6.1,3.7-11.6,11.5-16C97.2,884,106.4,881.8,117.4,881.8L117.4,881.8L117.4,881.8z"/>
	<path fill-rule="evenodd" clip-rule="evenodd" fill="#2D3B93" d="M136,872.8c1.3,1.8,2.2,4.2,2.2,6.9v13.9H27.9
		c-2.2,0-4.2-1.1-5.5-3c-1.7-1.8-2.4-4.2-2.4-6.9V870h110.3C132.5,870,134.3,871,136,872.8L136,872.8z"/>
	<path fill-rule="evenodd" clip-rule="evenodd" fill="#EC2029" d="M146.8,903.9c1.1-0.4,1.2,0,0.6,1.4c-0.7,1-1.8,2-3,2.7
		C144.9,906.2,145.6,904.7,146.8,903.9L146.8,903.9z M140.5,894.7c-0.6,1.8-2.4,4.6-5.7,8.4c1.3-3.5,2.7-5.9,3.9-7.2
		C139.9,894.5,140.5,894.1,140.5,894.7L140.5,894.7z M146.5,894.8c-0.6,1.8-2.4,4.7-5.7,8.4c1.3-3.4,2.8-6,3.9-7.4
		C145.9,894.5,146.5,894.1,146.5,894.8L146.5,894.8z M128,905.7c-0.8,1.1-1.6,1.7-2.6,2.3c0.2-1.4,0.8-2.7,1.7-3.5
		c0.7-0.6,1.3-0.7,1.6-0.6C129.1,904.1,128.9,904.7,128,905.7L128,905.7z M92.7,909.2c-0.8,0.6-1.2,0.4-1.4-0.5l0.6-1.3
		c0.8-1.4,1.4-1.8,2-1.7C94.5,906.3,94.1,907.5,92.7,909.2L92.7,909.2z M82.8,912.3c4.5,4.2,10.3,5.3,17.1,2.9
		c5.7-3.5,10.8-8.3,14.9-14.7c-1,3.6-3.2,7.6-6.2,12.3c2.3-1.1,4.8-3.3,7.4-6.6l3.9-5.9c-2.4,5.3-3.1,8.7-2.2,10.1
		c1,1.6,2.8,1.6,5.4,0.1c1.4,1.7,3.8,1.4,6.8-0.7c1,2.2,2.4,2.5,4.2,1.3l1.9-1.3c0.6,2.4,2.9,2.5,6.5,0.7c1.3,1.4,2.8,1.7,4.3,0.6
		c0.6-0.4,1.2-0.7,1.4-1.2c-0.2-0.4-0.4-0.6-0.8-0.6c-1.8,1.1-2.8,1.1-3,0c2.3-1,3.8-2.4,5-4.2c1-1.6,0.6-2.4-1-2.5
		c-3.8,0.4-6,2.5-6.6,6.6c-0.6,0.6-1.4,1-2,1c-1,0-1.4-1-0.8-3.3c6.8-7.2,9.8-11.6,9.2-13.3c-0.6-1.6-2-1.3-4.2,0.8
		c-3.3,3.3-6,7.8-8,13.6c-1.3,1.1-2.2,1.7-2.8,1.7c-0.6-0.2-0.6-1.2,0-3c6.9-7.5,9.9-12.1,9.2-13.5c-0.6-0.8-1.4-0.8-2.6,0
		c-4.5,3.4-8,8.2-9.8,14.2c-2.8,2.7-4.3,3.3-4.8,2c1.4-0.8,2.6-1.8,4.1-3.3c1.6-1.6,1.8-2.5,0.6-3.1c-1.1-0.6-2.3-0.5-3.6,0.1
		c-2.6,1.7-3.8,3.6-3.8,6.3c-2,0.8-2.6-0.6-1.6-4.5c2.4-6.1,5.5-11.5,9.3-15.4c-1.8,0.6-3.8,2-5.7,3.9l-7.1,8.2
		c1.4-4.6,4.2-8.8,8.4-12.9c-4.2,2.3-7.3,4.8-9.3,7.5l-6.8,8.8c-3.6,4.5-7.5,7.5-11.7,8.9c-6.9,2.2-12.2,1-15.3-3.3
		c-1.2-2.2-1.1-4.5,0.6-6.3c2.8-2.8,6-4.3,9.6-4.6c5.4-0.6,9.9,0.8,13.3,4.2c0.2,0.2,0.6,0.2,0.8,0c0.2-0.2,0-0.6-0.4-0.8
		c-3.8-3.6-8.2-5.4-13-5.2c-3.7,0.2-7.2,1.8-10.2,4.5C80.4,905.9,80.1,909.3,82.8,912.3L82.8,912.3z M85.2,906.8
		c0.1-0.6,0-0.8-0.5-0.6c-0.4,0.6-0.7,0.7-1,0.6c-0.2,0-0.4-0.2-0.2-0.6c1.2-1.7,2.4-2,3.6-1.2c0.6,0.6,0.5,1.9-0.6,4
		c-0.1,0.8,0,0.8,0.8,0c0.6-0.6,1-1.2,1.2-2.2c-0.6-1.1-0.6-1.7,0-2.3c0.6-0.1,1,0.2,1.2,1.4c0.2,0.8,0.6,0.6,1.6-0.4
		c1.2-1.1,2.3-1.2,3.2-0.5l0.2-0.6h2.2l-1.4,4.1c-0.1,0.6,0,1,0.6,0.7c1.1-0.6,1.7-2.2,2.3-4.3h2.4l-0.2,0.4c1.2-0.6,2-0.8,2.6-0.2
		c0.1,1.1,0.1,2-0.5,3.3c-0.4,0.6-0.4,1,0,1c0.5-0.1,0.8-0.4,1.1-0.7l0.7,0.6c-1.2,1.8-2.5,2.4-4.2,1.3c-0.6-0.6-0.4-1.2,0-1.9
		l0.6-1.7c0.2-0.6,0-0.7-0.7-0.4l-1.8,4.5h-2l0.2-0.6c-1.8,0.7-2.9,0.7-3.5,0c-1.3,0.7-2.4,0.7-3.1,0.1c-0.6-0.6-0.8-1.6-0.5-3
		c-1.3,2.3-2.4,3.5-3.3,3.6c-1.4,0.5-2-0.4-1.8-2.2L85.2,906.8L85.2,906.8L85.2,906.8z"/>
	<path fill-rule="evenodd" clip-rule="evenodd" fill="#FFFFFF" d="M105.2,875.2h20.9v2.7l-3-0.2v11.1h-2.8c-1.7,0-2.4-0.8-2.6-2.7
		l0.2-8.4h-4.7v11.1c-1.8,0-2.5,0-2.5,0c-1.8,0-2.9-1.1-2.6-2.9v-8.2h-3V875.2L105.2,875.2L105.2,875.2z M88.7,877.6h-8.2v11.1H78
		c-1.4,0-2.4-0.6-2.6-2v-11.4h13.4V877.6L88.7,877.6z M103.7,875.2v2.4h-8.2v7.5c0.2,0.6,0.5,0.7,0.6,1c0.2,0.2,2.6,0.2,7.7,0
		l-0.2,2.7H93.3c-1,0.1-1.6-0.2-2.2-0.8c-0.5-0.4-0.6-1-0.6-1.6v-11.1H103.7L103.7,875.2z M103.4,883h-6.3c-0.5,0-0.6-0.2-0.6-0.8
		l-0.2-1.6h7.2V883L103.4,883z M88.5,883c-3.8,0.2-6,0.2-6.2,0c-0.6-0.2-1-0.8-0.7-1.4v-1h6.9V883L88.5,883z M133,875.2v13.5h-2.4
		c-1.1,0-1.8-0.2-2.3-0.6c-0.4-0.5-0.6-1.2-0.4-2.3v-10.6H133L133,875.2z M36.5,875.2c2-0.2,3.3,0.4,4.4,1.8c0.7,1.2,1,2.7,0.4,4
		c-0.6,1.2-1.8,1.8-3.2,2l-2.4,0.2h-3c-0.4,0-0.7-0.2-1-0.8v-1.8h3.8c0.6-0.2,0.7-0.6,0.7-1.2c0.2-1-0.1-1.6-1.2-1.6h-4.3v10.8h-2.6
		c-1-0.2-1.8-0.6-2.2-1.2c-0.2-0.5-0.5-1.4-0.5-2.9v-9.4H36.5L36.5,875.2z M49,880.6c1.4,0,3.6,0,6.9,0v2.7h-5.4
		c-1,0-1.3-0.5-1.6-1.1V880.6L49,880.6z M42.8,885.8v-10.6H56v2.7l-7.9-0.2v7.5c0,0.4,0.1,0.6,0.4,0.7c0.2,0.2,0.6,0.2,1.4,0.2
		l6.1,0.2v2.4H45.1C43.7,888.4,43.1,887.6,42.8,885.8L42.8,885.8z M70.3,875.2c1.1,0,1.8,0.4,2.4,1.2c0.6,0.6,1.1,1.4,1.1,2.4
		c0,1.4-0.5,2.7-1.2,3.4c-0.6,0.5-1.4,0.8-2.4,1.1l3.3,5.4h-5.4l-3.9-6c-0.2-0.2-0.2-1.1-0.2-2h3.6c0.6-0.2,0.8-0.6,1-1.2
		c0.2-0.8-0.1-1.4-0.7-1.6c-0.2-0.2-1.8-0.2-5-0.2v10.8h-3.6c-0.8-0.2-1.2-0.8-1.2-1.6v-11.7H70.3L70.3,875.2z"/>
</g>
<g>
	<path fill-rule="evenodd" clip-rule="evenodd" fill="#005BA8" d="M77.9,991.3c6.5-16.2-5.7-20.6-13.6-20.6H38
		c2.2,1.5,1.8,3.5,1.4,4.8l-15.3,49.4c-0.6,2-2.9,4-4.1,4.3l21.3,0c-1.2-0.2-2.8-1.9-2.2-4.2l5.6-17.9
		C44.6,1007.1,70.2,1010.6,77.9,991.3z M57.3,975.2c2.8,0,10.5,0.4,5.5,15.1c-5.2,15.4-16.8,12.3-16.8,12.3l8.5-27.4
		C54.5,975.2,57.2,975.2,57.3,975.2z"/>
	<path fill-rule="evenodd" clip-rule="evenodd" fill="#005BA8" d="M94.9,1029.2l14.3,0c-4.6-1.5-11.4-5.8-14-9
		c2.2-2.4,4.9-5.4,5.4-11.6h-7.4c0,0,1.4,0.8,1.4,2.6c0,1.6-0.6,3.9-1.9,5.5c-2.2-3.3-4.5-7-5.3-12.4c2.9-1.5,7-3,10.3-5.9
		c3.1-2.7,3.8-5.3,3.8-7c0-0.1,0-0.1,0-0.2c0-1.7-0.7-3.4-1.9-4.7c-2.1-2.1-5.5-3-9.1-2.4c-2.9,0.5-5.3,2.1-6.5,3.2
		c-4.3,4.1-4.9,10.8-4.9,13.9c0,0.7,0,1.3,0.1,1.6c-0.2,0.1-0.7,0.3-0.7,0.3c-3.2,1.2-11.6,3.4-14.6,10.4c-0.4,0.9-0.9,2.8-0.9,5
		c0,1.9,0.4,4.1,1.6,6c2.1,3.3,5.7,5.5,11.5,5.4c6.3-0.1,12.4-4.4,13.6-5.2C90.7,1025.8,93.5,1028.5,94.9,1029.2z M94.9,990.1
		c-0.7,4.7-6.8,9.5-8.3,10.1c-0.3-2.6-0.1-6.8,2.1-10.2c1.5-2.3,3.4-3.3,4.9-2.7C94.9,987.7,95,988.9,94.9,990.1z M86.5,1021.6
		c-0.8,0.5-4.2,2.2-7.3,2.5c-2.9,0.3-7.7-0.9-7.7-6.7c0-5,5.4-8.6,8.3-9.9C81.1,1012.3,83.7,1017.8,86.5,1021.6z"/>
	<path fill-rule="evenodd" clip-rule="evenodd" fill="#005BA8" d="M138.4,975.3c8.5-2.1,15.5,4.7,16.1,5.1l2.4-7.8
		c-3.4-1-27.8-9.4-45,10.5c-10.6,12.2-13.2,37.3,0.2,44c14.4,7.2,30.3-1.1,31.5-1.7l6.6-21.1c0.7-2.6,2.3-4.2,5.2-5.3h-22.9
		c3.3,1.4,3.1,3.9,2.8,5l-6.6,21.1c-0.9,0.2-19.2,4.8-9-27.6C122.1,990.5,128.3,977.7,138.4,975.3z"/>
</g>
<g>
	<path fill="#794210" d="M57.3,1140.7c-16.6,8.8-18.6-8.9-18.6-8.9c8.5-1.8,14.7-6.3,13.9-10.1c-0.9-4.1-8.8-6-17.6-4.1
		C28.6,1119,22,1122,20,1125c0,0,0,0,0,0c0.3-0.3,0.6-0.5,0.6-0.5c10.5-7.6,22.3-5.2,22.3-5.2c2.6,0.5,4.5,1.7,4.9,3.4
		c0.7,3.1-3.5,6.6-9.3,7.8c-1.2,0.2-2.7,0.5-3.8,0.6c1.8,11.8,9.6,13.9,12.7,13.9c5.9,0,9.6-3.9,9.7-4
		C57.5,1140.7,57.4,1140.6,57.3,1140.7z M25.3,1123.7c9.2-3.1,8.5-1.1,8.5-1.1c-2,3.8-11.1,19.5-11.1,19.5c2.5-0.9,5.6-1.5,5.6-1.5
		l10.8-20C30.4,1120.4,25.3,1123.7,25.3,1123.7 M54.7,1129.5c-2.7-1.6-7.1-0.5-9.9,2.5c-2.8,3-2.8,6.7-0.1,8.3
		c2.7,1.6,7.1,0.5,9.9-2.5C57.3,1134.9,57.4,1131.1,54.7,1129.5 M52.1,1135.6c-1.3,2.6-3.4,4.4-4.8,4c-1.3-0.4-1.3-2.8,0-5.3
		c1.3-2.6,3.4-4.4,4.8-4C53.4,1130.6,53.4,1133,52.1,1135.6 M67,1129.3c-2.7-1.6-7.1-0.5-9.9,2.5c-2.8,3-2.8,6.7-0.1,8.3
		c2.7,1.6,7.1,0.5,9.9-2.5C69.6,1134.6,69.7,1130.9,67,1129.3 M64.4,1135.4c-1.3,2.6-3.4,4.4-4.8,4c-1.3-0.4-1.3-2.8,0-5.3
		c1.3-2.6,3.4-4.4,4.8-4C65.7,1130.4,65.7,1132.8,64.4,1135.4"/>
	<g>
		<path fill="#8E8279" d="M65.1,1090.3c1.5,0.5,2.6,1.5,3,2.1c0.4,0.4,0.8,0.7,1.1,0.8c1.1,0.4,2.3,0,2.6-0.9
			c0.3-0.9-0.3-1.9-1.5-2.3c-0.3-0.1-0.9-0.2-1.4-0.1c-0.7,0.1-2.2,0.3-3.7-0.2c-0.2-0.1-0.4,0-0.4,0.2
			C64.8,1090,64.9,1090.2,65.1,1090.3z M71.1,1088.2c0.2,0.5,0.5,1,0.8,1.2c0.9,0.8,2.1,0.8,2.7,0c0.6-0.7,0.4-1.9-0.5-2.7
			c-0.3-0.2-0.8-0.5-1.3-0.5c-0.7-0.1-2.1-0.5-3.3-1.5c-0.1-0.1-0.4-0.1-0.5,0c-0.1,0.1-0.1,0.3,0,0.5
			C70.2,1086.1,70.9,1087.5,71.1,1088.2z M68.7,1097.7c1.2,0,2.1-0.8,2.1-1.7c0-1-1-1.7-2.1-1.7c-0.3,0-0.9,0.1-1.3,0.4
			c-0.6,0.3-2,1-3.5,1c-0.2,0-0.3,0.2-0.3,0.3c0,0.2,0.1,0.3,0.3,0.3c1.6,0,2.9,0.6,3.5,1C67.8,1097.5,68.3,1097.7,68.7,1097.7z
			 M82.5,1087.4c1,0,1.7-1,1.7-2.1c0-0.3-0.1-0.9-0.4-1.3c-0.3-0.6-1-2-1-3.6c0-0.2-0.1-0.3-0.3-0.3c-0.2,0-0.3,0.2-0.3,0.3
			c0,1.6-0.6,2.9-1,3.6c-0.3,0.5-0.4,1-0.4,1.3C80.8,1086.4,81.5,1087.4,82.5,1087.4z M94.6,1089.9c-1.1,0.4-1.8,1.4-1.5,2.3
			c0.3,0.9,1.5,1.3,2.6,0.9c0.3-0.1,0.8-0.4,1.1-0.8c0.5-0.5,1.6-1.6,3-2.1c0.2-0.1,0.3-0.3,0.2-0.4c-0.1-0.2-0.3-0.3-0.4-0.2
			c-1.5,0.5-3,0.4-3.7,0.2C95.5,1089.8,95,1089.8,94.6,1089.9z M86.5,1087.8c0.9,0.4,2-0.1,2.5-1.1c0.2-0.3,0.3-0.8,0.2-1.4
			c0-0.7,0-2.2,0.7-3.6c0.1-0.2,0-0.4-0.1-0.4c-0.2-0.1-0.4,0-0.4,0.1c-0.7,1.4-1.9,2.3-2.5,2.7c-0.5,0.3-0.8,0.7-1,1
			C85.4,1086.2,85.7,1087.4,86.5,1087.8z M90.3,1089.4c0.6,0.7,1.8,0.7,2.7,0c0.3-0.2,0.6-0.7,0.8-1.2c0.3-0.7,0.9-2,2.1-3
			c0.1-0.1,0.2-0.3,0-0.5c-0.1-0.1-0.3-0.2-0.5,0c-1.2,1-2.6,1.4-3.3,1.5c-0.5,0.1-1,0.3-1.3,0.5C90,1087.5,89.7,1088.7,90.3,1089.4
			z M75.7,1085.3c0,0.5,0.1,1.1,0.2,1.4c0.5,1.1,1.6,1.6,2.5,1.1c0.8-0.4,1.1-1.6,0.6-2.7c-0.2-0.3-0.5-0.7-1-1
			c-0.6-0.4-1.8-1.3-2.5-2.7c-0.1-0.2-0.3-0.2-0.4-0.1c-0.2,0.1-0.2,0.3-0.2,0.4C75.7,1083.1,75.7,1084.6,75.7,1085.3z M93.9,1103.7
			c-0.2-0.5-0.5-1-0.8-1.2c-0.9-0.8-2.1-0.8-2.7,0c-0.6,0.7-0.4,1.9,0.5,2.7c0.3,0.2,0.8,0.5,1.3,0.5c0.7,0.1,2.1,0.5,3.3,1.5
			c0.1,0.1,0.4,0.1,0.5,0c0.1-0.1,0.1-0.4,0-0.5C94.8,1105.8,94.1,1104.4,93.9,1103.7z M99.9,1101.6c-1.5-0.5-2.6-1.6-3-2.1
			c-0.4-0.4-0.8-0.7-1.1-0.8c-1.1-0.4-2.3,0-2.6,0.9c-0.3,0.9,0.3,1.9,1.5,2.3c0.3,0.1,0.9,0.2,1.4,0c0.7-0.1,2.2-0.3,3.7,0.2
			c0.2,0.1,0.4,0,0.4-0.2C100.2,1101.9,100.1,1101.7,99.9,1101.6z M70.4,1102c1.1-0.4,1.8-1.4,1.5-2.3c-0.3-0.9-1.5-1.3-2.6-0.9
			c-0.3,0.1-0.8,0.4-1.1,0.8c-0.5,0.5-1.6,1.6-3,2.1c-0.2,0.1-0.3,0.3-0.2,0.4c0.1,0.2,0.3,0.3,0.4,0.2c1.5-0.5,3-0.4,3.7-0.2
			C69.5,1102.1,70,1102.1,70.4,1102z M101.2,1095.6c-1.6,0-2.9-0.6-3.5-1c-0.5-0.3-1-0.4-1.3-0.4c-1.2,0-2.1,0.8-2.1,1.7
			c0,1,1,1.7,2.1,1.7c0.4,0,0.9-0.1,1.3-0.4c0.6-0.3,2-1,3.5-1c0.2,0,0.3-0.1,0.3-0.3C101.5,1095.8,101.4,1095.6,101.2,1095.6z
			 M74.1,1105.2c0.9-0.8,1.1-2,0.5-2.7c-0.6-0.7-1.8-0.7-2.7,0c-0.3,0.2-0.6,0.7-0.8,1.2c-0.3,0.7-0.9,2-2.1,3
			c-0.1,0.1-0.2,0.3,0,0.5c0.1,0.1,0.3,0.2,0.5,0c1.2-1,2.6-1.4,3.3-1.5C73.3,1105.7,73.8,1105.4,74.1,1105.2z M89.3,1106.6
			c0-0.5-0.1-1.1-0.2-1.4c-0.5-1.1-1.6-1.6-2.5-1.1c-0.8,0.4-1.1,1.6-0.6,2.7c0.1,0.3,0.5,0.7,1,1c0.6,0.4,1.8,1.3,2.5,2.7
			c0.1,0.2,0.3,0.2,0.4,0.1c0.2-0.1,0.2-0.3,0.1-0.4C89.3,1108.8,89.2,1107.3,89.3,1106.6z M91.6,1096c0-3.3-2.8-6-6.2-6
			c-0.7,0-1.2,0.1-1.8,0.2c-0.4,0.1-0.7,0.2-1.1,0.2h0c-0.4,0-0.7-0.1-1.1-0.2c-0.6-0.2-1.1-0.2-1.8-0.2c-3.5,0-6.2,2.7-6.2,6
			c0,2.6,1.8,4.8,4.2,5.6c0,0,1.3,0.5,1.3,0.7c0,0,0.1,0.2-0.7,0.6c0,0-2.7,1.7-2.9,3.8c0,0-0.1,0.8-0.1,1.4c0,0,0,0.8-0.6,1
			c-0.1,0-0.3,0.1-0.5,0c-0.3-0.1-0.9-0.3-1.2-0.2c0,0-0.5,0.3,0.5,0.9c0,0,0.4,0.2,0.8,0.3c3.3,1,3.8-3.2,3.8-3.2
			c0.3-2.2,1.7-3.9,1.7-3.9c0.5-0.6,0.5-1.1,0.5-1.1c0-0.6-0.8-1.3-1.5-1.7c-0.6-0.3-1-0.7-1.2-0.8c-0.8-0.8-1.3-1.9-1.3-3.2
			c0-2.4,1.9-4.3,4.1-4.3c0.7,0,1.3,0.3,1.3,0.9c0,0,0,6.4,0,7l0,10.8c0,1.3-0.6,2.7-1,3.2c-0.4,0.5,0.3,1,0.7,0.7
			c0.2-0.2,0.8-0.2,1.3-0.2c0.5,0,1,0,1.3,0.2c0.4,0.3,1.1-0.2,0.7-0.7c-0.4-0.5-1-1.9-1-3.2l0-7.3c0-0.9,0.4-1.3,1.3-1.3
			c0.1,0,0.6,0,0.6,0C88.8,1101.9,91.6,1099.2,91.6,1096z M84.8,1100.7c-0.7,0-1.3-0.3-1.3-0.9c0-0.5,0-7,0-7c0-0.5,0.6-0.9,1.3-0.9
			c2.3,0,4.1,1.9,4.1,4.3C88.9,1098.7,87,1100.7,84.8,1100.7z"/>
		<g>
			<path fill="#8E8279" d="M87.1,1113.5c0.6,0,1.1,0.5,1.1,1.1c0,0.6-0.5,1.1-1.1,1.1c-0.6,0-1.1-0.5-1.1-1.1
				C86,1114,86.5,1113.5,87.1,1113.5L87.1,1113.5z M87.1,1113.7c-0.5,0-0.9,0.4-0.9,0.9c0,0.5,0.4,0.9,0.9,0.9
				c0.5,0,0.9-0.4,0.9-0.9C88,1114.1,87.6,1113.7,87.1,1113.7L87.1,1113.7z M86.9,1115.3h-0.2v-1.2c0.1,0,0.2,0,0.3,0
				c0.2,0,0.3,0,0.4,0.1c0.1,0.1,0.1,0.1,0.1,0.3c0,0.2-0.1,0.3-0.2,0.3v0c0.1,0,0.2,0.1,0.2,0.3c0,0.2,0.1,0.3,0.1,0.3h-0.2
				c0,0-0.1-0.2-0.1-0.3c0-0.2-0.1-0.2-0.3-0.2h-0.1V1115.3z M86.9,1114.6h0.1c0.2,0,0.3-0.1,0.3-0.2c0-0.1-0.1-0.2-0.3-0.2
				c-0.1,0-0.1,0-0.1,0V1114.6z"/>
		</g>
	</g>
	<g>
		<path fill="#794210" d="M143.4,1138.8c0.6,0,1.1,0.5,1.1,1.1c0,0.6-0.5,1.1-1.1,1.1c-0.6,0-1.1-0.5-1.1-1.1
			C142.3,1139.3,142.8,1138.8,143.4,1138.8L143.4,1138.8z M143.4,1139c-0.5,0-0.9,0.4-0.9,0.9c0,0.5,0.4,0.9,0.9,0.9
			c0.5,0,0.9-0.4,0.9-0.9C144.3,1139.4,143.9,1139,143.4,1139L143.4,1139z M143.2,1140.5H143v-1.2c0.1,0,0.2,0,0.4,0
			c0.2,0,0.3,0,0.4,0.1c0.1,0.1,0.1,0.1,0.1,0.3c0,0.2-0.1,0.3-0.2,0.3v0c0.1,0,0.2,0.1,0.2,0.3c0,0.2,0.1,0.3,0.1,0.3h-0.2
			c0,0-0.1-0.2-0.1-0.3c0-0.2-0.1-0.2-0.3-0.2h-0.1V1140.5z M143.2,1139.8h0.1c0.2,0,0.3-0.1,0.3-0.2c0-0.1-0.1-0.2-0.3-0.2
			c-0.1,0-0.1,0-0.1,0V1139.8z"/>
	</g>
	<path fill="#794210" d="M123.9,1129.9c-2.7-1.6-7.1-0.5-9.9,2.5c-0.2,0.2-0.4,0.4-0.5,0.6c-0.1-1.3-0.8-2.4-2-3.2
		c-2.7-1.6-7.1-0.5-9.9,2.5c-2.8,3-2.8,6.7-0.1,8.3c2.7,1.6,7.1,0.5,9.9-2.5c0.2-0.2,0.4-0.4,0.5-0.6c0.1,1.3,0.8,2.4,2,3.2
		c2.7,1.6,7.1,0.5,9.9-2.5C126.6,1135.2,126.6,1131.5,123.9,1129.9z M109,1135.9c-1.3,2.6-3.4,4.4-4.8,4c-1.3-0.4-1.3-2.8,0-5.3
		c1.3-2.6,3.4-4.4,4.8-4C110.3,1131,110.3,1133.4,109,1135.9z M121.3,1135.9c-1.3,2.6-3.4,4.4-4.8,4c-1.3-0.4-1.3-2.8,0-5.3
		c1.3-2.6,3.4-4.4,4.7-4C122.7,1131,122.7,1133.4,121.3,1135.9z M144.1,1126.9c3.6-7.1-4.6-6.4-4.6-6.4c-0.7,0-0.5,0.2-0.5,0.2
		c4.9-0.1,1.4,5.8,1.4,5.8l-1.9,3.6c-0.1-0.1-0.2-0.2-0.4-0.3c-2.1-1.5-6.4-0.2-9.7,2.8c-3.2,3-4.2,6.7-2.1,8.2
		c1.6,1.1,4.7,0.5,7.3-1.3c-0.2,0.8,0.2,1.6,1.5,1.8c0.4,0.1,3.2,0.3,5.5-1.6c0.3-0.3,0-0.2,0-0.2c-1.8,0.7-2.5,0.5-2.5,0.5
		c-0.9-0.2-0.4-1.1-0.4-1.1L144.1,1126.9z M137.1,1133l-2.1,4c-1.6,1.9-3.5,3-4.5,2.6c-1.2-0.5-0.9-2.9,0.8-5.4c1.7-2.5,4-4,5.3-3.5
		C137.1,1130.9,137.3,1131.8,137.1,1133z M89.2,1142.4c-8.1,3.9-12.1-2-13.1-6.4c2.9-0.3,7.5-3.9,5.4-9.9c1.1,4.8-4.1,7.8-7.1,7
		c-0.5,0-1.2,0.6-1.6,0.5c0.3,3.7,2.6,10.8,8,11.5c2.8,0.3,5.9-0.7,8.1-2.3c0.3-0.2,0.5-0.4,0.5-0.5
		C89.3,1142.4,89.3,1142.3,89.2,1142.4z M94.8,1125.9l-0.1,0.1c1.1,0.1,2,0.7,2.5,1.3c1.9,2.5,0.2,6-0.2,6.8c-1.5,2.7-3,3.8-3.6,4.2
		c-1.2,0.9-1.9,0.6-1.9,0.6c-1.4-0.5-0.1-2.5-0.1-2.5l3.8-7h-3.8l-3.5,6.6c0,0-0.1,0.1-0.2,0.4c-1.1,1.3-2.1,1.9-2.6,2.2
		c-1.6,1-2.2,0.4-2.2,0.1c-0.2-0.7,0.5-1.9,0.5-1.9l4.3-7.4h-3.8l-3.9,6.8c0,0-2.3,4,0.5,4.9c0,0,2.3,0.8,5.7-1.7
		c0,0,0.3-0.2,0.9-0.6c0,0.9,0.3,1.8,1.5,2.2c0,0,2.4,1,6.1-1.7c0,0,5.7-4,6.3-8.7C101.8,1124.7,94.8,1125.9,94.8,1125.9z
		 M73.9,1119.3c-0.7,0-0.5,0.2-0.5,0.2c4.9-0.1,1.4,5.8,1.4,5.8l-8.2,15.5h3.8l8.1-15.2C82.1,1118.6,73.9,1119.3,73.9,1119.3z"/>
	<g>
		<path fill="#8E8279" d="M29.4,1155.5c-0.1,0-0.1,0-0.2,0c0,0,0-0.1,0-0.1c0.1,0,0.1,0,0.2,0c1.5,0,2.1-0.6,2.1-2
			c0-1.3-0.7-1.9-2-1.9c-0.2,0-0.3,0-0.6,0c-0.1,0.4-0.1,0.9-0.1,1.8v3.7c0,1.8,0,1.9,1.1,2c0,0,0.1,0.1,0,0.1c-0.4,0-1-0.1-1.5-0.1
			c-0.7,0-1.3,0-1.8,0.1c-0.1,0,0-0.1,0-0.1c1.1-0.1,1.2-0.1,1.2-2v-3.7c0-1.9-0.1-1.9-1.2-2c0,0-0.1-0.2,0-0.1
			c0.5,0.1,0.9,0.1,1.6,0.1c0.3,0,1.1,0,1.5,0c1.6,0,2.6,0.8,2.6,2C32.5,1154.6,31.3,1155.5,29.4,1155.5z"/>
		<path fill="#8E8279" d="M37.4,1159.2c-1.8,0-3.2-1.4-3.2-3c0-1.7,1.4-3.2,3.4-3.2c1.8,0,3.2,1.4,3.2,3
			C40.7,1157.7,39.3,1159.2,37.4,1159.2z M37.3,1153.3c-1.3,0-2.3,0.8-2.3,2.5c0,2.1,1.3,3.1,2.5,3.1c1.3,0,2.3-0.8,2.3-2.5
			C39.8,1154.4,38.6,1153.3,37.3,1153.3z"/>
		<path fill="#8E8279" d="M48.1,1153.7c0,0.1,0,0.5,0,0.6c0,0-0.1,0-0.1,0c-0.1-0.4-0.4-0.7-1.4-0.7h-0.8v3.9c0,1.1,0.1,1.4,0.9,1.5
			c0,0,0,0.1,0,0.1c-0.3,0-0.9-0.1-1.3-0.1c-0.5,0-1.1,0-1.5,0.1c-0.1,0,0-0.1,0-0.1c0.8-0.1,0.9-0.3,0.9-1.5v-3.9H44
			c-0.9,0-1.3,0.3-1.4,0.7c0,0-0.1,0-0.1,0c0-0.2,0.1-0.7,0.1-0.9c0-0.1,0-0.3,0-0.5c0,0,0.1,0,0.1,0c0.1,0.3,0.1,0.3,1.4,0.3h2.6
			c1.3,0,1.4,0,1.4-0.3c0,0,0.1,0,0.1,0C48.1,1153.1,48.1,1153.4,48.1,1153.7z"/>
		<path fill="#8E8279" d="M55.5,1153.7c0,0.1,0,0.5,0,0.6c0,0-0.1,0-0.1,0c-0.1-0.4-0.4-0.7-1.4-0.7h-0.8v3.9c0,1.1,0.1,1.4,0.9,1.5
			c0,0,0,0.1,0,0.1c-0.3,0-0.9-0.1-1.3-0.1c-0.5,0-1.1,0-1.5,0.1c-0.1,0,0-0.1,0-0.1c0.8-0.1,0.9-0.3,0.9-1.5v-3.9h-0.9
			c-0.9,0-1.3,0.3-1.4,0.7c0,0-0.1,0-0.1,0c0-0.2,0.1-0.7,0.1-0.9c0-0.1,0-0.3,0-0.5c0,0,0.1,0,0.1,0c0.1,0.3,0.1,0.3,1.4,0.3H54
			c1.3,0,1.4,0,1.4-0.3c0,0,0.1,0,0.1,0C55.6,1153.1,55.5,1153.4,55.5,1153.7z"/>
		<path fill="#8E8279" d="M61.9,1158.9c0,0.2-0.1,0.2-0.2,0.2c-0.3,0-0.9,0-1.6,0c-0.9,0-2,0-2.7,0.1c0,0,0-0.1,0-0.1
			c0.9-0.1,1-0.2,1-1.5v-2.8c0-1.2-0.1-1.4-1-1.5c0,0,0-0.2,0-0.2c0.7,0.1,1.7,0.1,2.6,0.1c0.7,0,1.3,0,1.8-0.1c0,0.1,0,0.4,0,0.6
			c0,0.1,0,0.4,0,0.4c0,0-0.1,0-0.2,0c-0.1-0.4-0.2-0.6-1.4-0.6h-0.8c0,0.2-0.1,0.6-0.1,1.2v1.2H60c1,0,1.1,0,1.2-0.5
			c0,0,0.1,0,0.1,0c0,0.1-0.1,0.5-0.1,0.7c0,0.1,0,0.5,0,0.5c0,0-0.1,0-0.1,0c-0.1-0.5-0.2-0.6-1.2-0.6h-0.6v1.3
			c0,1.2,0.1,1.3,0.5,1.3h0.5c1.4,0,1.4-0.2,1.6-0.8c0,0,0.2,0,0.2,0C62,1158.1,61.9,1158.7,61.9,1158.9z"/>
		<path fill="#8E8279" d="M67,1156.4c-0.2,0.1-0.5,0.1-0.7,0.1c-0.2,0-0.2,0-0.4,0v1.1c0,1.1,0.1,1.4,0.9,1.5c0,0,0,0.2,0,0.1
			c-0.3,0-0.9-0.1-1.3-0.1c-0.5,0-1.1,0-1.5,0.1c-0.1,0,0-0.1,0-0.1c0.8-0.1,0.9-0.2,0.9-1.5v-2.8c0-1.1-0.2-1.3-0.6-1.3
			c-0.1,0-0.2,0-0.3,0c0,0-0.1-0.1,0-0.1c0.4-0.1,1.4-0.2,2.4-0.2c1.6,0,2.4,0.5,2.4,1.5c0,0.6-0.4,1.2-1.1,1.5c0.5,1.3,1.6,3,2.7,3
			c0,0,0,0.1,0,0.1C68.5,1159.2,67.4,1157.8,67,1156.4z M66.3,1153.4c-0.1,0-0.2,0-0.3,0c0,0.2-0.1,0.5-0.1,1.2v1.5
			c0.1,0,0.2,0,0.4,0c1.2,0,1.7-0.5,1.7-1.4C68,1153.8,67.4,1153.4,66.3,1153.4z"/>
		<path fill="#8E8279" d="M77.7,1153.4c-0.1,0-0.3,0-0.4,0c-1.5,0-2.6,1.9-2.6,4v0.2c0,1.1,0.1,1.4,0.9,1.5c0,0,0,0.2,0,0.1
			c-0.3,0-0.9-0.1-1.3-0.1c-0.5,0-1.1,0-1.5,0.1c-0.1,0,0-0.1,0-0.1c0.8-0.1,0.9-0.3,0.9-1.5v-0.2c0-2.3-1.2-3.9-2.6-3.9
			c-0.1,0-0.2,0-0.3,0c0,0,0-0.1,0-0.1c0.3-0.1,0.6-0.2,0.9-0.2c1.3,0,2.5,1.1,2.8,2.5c0.5-1.6,1.5-2.5,2.6-2.5c0.2,0,0.4,0,0.6,0.1
			C77.8,1153.2,77.7,1153.4,77.7,1153.4z"/>
		<path fill="#8E8279" d="M89.8,1158.6c-0.4,0.3-1.2,0.7-2.6,0.7c-2.7,0-4.5-1.9-4.5-4c0-2,1.9-4.3,4.5-4.3c1.1,0,2.3,0.5,2.5,0.7
			c0.1,0.1,0.2,0.9,0.2,1.7c0,0-0.1,0-0.1,0c-0.2-1-1.1-2.1-2.9-2.1c-1.8,0-3.2,1.3-3.2,3.6c0,2.8,1.8,4.2,3.5,4.2
			c1.3,0,2.5-0.8,2.6-2.1c0,0,0.1,0,0.1,0C90,1157.7,89.9,1158.6,89.8,1158.6z"/>
		<path fill="#8E8279" d="M95.4,1159.2c-1.8,0-3.2-1.4-3.2-3c0-1.7,1.4-3.2,3.4-3.2c1.8,0,3.2,1.4,3.2,3
			C98.7,1157.7,97.3,1159.2,95.4,1159.2z M95.3,1153.3c-1.3,0-2.3,0.8-2.3,2.5c0,2.1,1.3,3.1,2.5,3.1c1.3,0,2.3-0.8,2.3-2.5
			C97.8,1154.4,96.6,1153.3,95.3,1153.3z"/>
		<path fill="#8E8279" d="M107.4,1159c-0.5,0-1,0-1.4,0.1c0,0,0-0.1,0-0.1c0.7-0.1,0.9-0.3,0.8-1.5l0-3.4l-2.1,5c0,0-0.1,0-0.1,0
			l-2.3-4.9l0,3.3c0,1,0.1,1.4,0.9,1.5c0,0,0,0.2,0,0.1c-0.3,0-0.6-0.1-1-0.1c-0.5,0-0.9,0-1.3,0.1c0,0,0-0.1,0-0.1
			c0.8-0.1,0.9-0.4,1-1.5l0.1-3.2c0-0.4-0.4-0.9-1.1-1c0,0,0-0.2,0-0.1c0.5,0.1,1.1,0.1,1.9,0.1l2.2,4.7l1.2-3
			c0.3-0.6,0.5-1.2,0.6-1.7c0.6,0,1.5,0,1.9,0c0,0,0,0.1,0,0.1c-1,0.1-1,0.3-1,1.5l0.1,2.8c0,1.1,0.1,1.4,1.1,1.5c0,0,0,0.2,0,0.1
			C108.4,1159.1,107.7,1159,107.4,1159z"/>
		<path fill="#8E8279" d="M113.1,1156.5c0,0-0.1,0-0.1,0c0,0,0-0.1,0-0.1c0,0,0.1,0,0.1,0c0.9,0,1.4-0.5,1.4-1.5
			c0-1-0.5-1.4-1.3-1.4c-0.1,0-0.3,0-0.4,0c-0.1,0.3-0.1,0.6-0.1,1.3v2.8c0,1.1,0.1,1.4,0.9,1.5c0,0,0,0.2,0,0.1
			c-0.3,0-0.9-0.1-1.3-0.1c-0.5,0-1.1,0-1.5,0.1c0,0,0-0.1,0-0.1c0.8-0.1,0.9-0.2,0.9-1.5v-2.8c0-1.2-0.1-1.4-0.9-1.5
			c0,0,0-0.2,0-0.1c0.4,0,0.8,0.1,1.3,0.1c0.2,0,0.8,0,1.2,0c1.2,0,2.1,0.6,2.1,1.5C115.4,1155.7,114.5,1156.5,113.1,1156.5z"/>
		<path fill="#8E8279" d="M122,1159c-0.5,0-1.2,0-1.5,0.1c0,0,0-0.1,0-0.1c0.4-0.1,0.7,0,0.7-0.3c0-0.3-0.1-0.7-0.3-1.2l-0.2-0.7h-2
			l-0.3,0.7c-0.2,0.5-0.4,0.9-0.4,1.2c0,0.2,0.2,0.3,0.7,0.3c0,0,0,0.1,0,0.1c-0.3,0-0.7-0.1-1-0.1c-0.5,0-0.6,0-1,0.1
			c0,0,0-0.1,0-0.1c0.6-0.1,0.9-0.4,1.4-1.5l2-4.5c0,0,0.1,0,0.1,0l1.7,4.5c0.3,0.9,0.5,1.4,1.4,1.5c0,0,0,0.1,0,0.1
			C123,1159.1,122.4,1159,122,1159z M119.8,1154.3l-1,2.2h1.8L119.8,1154.3z"/>
		<path fill="#8E8279" d="M130.8,1154.7v2.8c0,0.5,0,1.3,0.1,1.7c0,0-0.1,0-0.2,0l-4.5-4.8v3.1c0,1,0.1,1.4,1,1.5c0,0,0,0.1,0,0.1
			c-0.3,0-0.6-0.1-1-0.1c-0.5,0-0.9,0-1.3,0.1c0,0,0-0.1,0-0.1c0.8-0.1,0.9-0.4,0.9-1.5v-3.2c0-0.4-0.8-1-1.2-1.1c0,0,0-0.2,0-0.2
			c0.4,0.1,1.1,0.1,1.6,0.1l4.2,4.5v-3c0-1.1-0.1-1.4-0.9-1.5c0,0,0-0.2,0-0.2c0.4,0.1,0.7,0.1,1.2,0.1c0.4,0,0.8,0,1.1-0.1
			c0.1,0,0,0.1,0,0.2C130.9,1153.3,130.8,1153.7,130.8,1154.7z"/>
		<path fill="#8E8279" d="M140.1,1153.4c-0.1,0-0.3,0-0.4,0c-1.5,0-2.6,1.9-2.6,4v0.2c0,1.1,0.1,1.4,0.9,1.5c0,0,0,0.2,0,0.1
			c-0.3,0-0.9-0.1-1.3-0.1c-0.5,0-1.1,0-1.5,0.1c-0.1,0,0-0.1,0-0.1c0.8-0.1,0.9-0.3,0.9-1.5v-0.2c0-2.3-1.2-3.9-2.6-3.9
			c-0.1,0-0.2,0-0.3,0c0,0,0-0.1,0-0.1c0.3-0.1,0.6-0.2,0.9-0.2c1.3,0,2.5,1.1,2.8,2.5c0.5-1.6,1.5-2.5,2.6-2.5c0.2,0,0.4,0,0.6,0.1
			C140.1,1153.2,140.1,1153.4,140.1,1153.4z"/>
	</g>
</g>
<g>
	<path fill="#002453" d="M81.8,1244.2c-1.3,0-2.4,0.5-3.1,0.7c-0.4,0.1-1.6,0.4-2.5,0c-0.2-0.1-0.8-0.1-0.1,0.7
		c0.2,0.2,0.5,0.4,1,0.7c2.3,1.1,4.4,0.7,6.9-0.5c0.6-0.3,1.6-0.3,1.6-0.6c0-0.3-0.5-0.5-0.9-1.1c-1.4-2-3.1-3.6-5.1-4.3
		c-1.1-0.4-1.6-0.1-1.3,0.2c0.8,0.8,1.2,2.2,2.2,3.4C80.9,1243.7,81.3,1244,81.8,1244.2z"/>
	<path fill="#002453" d="M85.4,1243.1c0-0.8,1.2-1.9,1.4-2.6c0.3,0.7,1.4,1.8,1.4,2.6c0,0.8-0.6,1.4-1.4,1.4
		C86,1244.5,85.4,1243.9,85.4,1243.1z"/>
	<path fill="#002453" d="M85.4,1246.9c0,0.8,1.2,2,1.4,2.6c0.3-0.7,1.4-1.9,1.4-2.6c0-0.8-0.6-1.4-1.4-1.4
		C86,1245.5,85.4,1246.1,85.4,1246.9z"/>
	<path fill="#002453" d="M75,1241.3c-1.2-0.4-2.4-0.3-3.1-0.4c-0.4-0.1-1.5-0.1-2.2-0.8c-0.1-0.1-0.6-0.4-0.3,0.6
		c0.1,0.2,0.3,0.5,0.7,0.9c1.8,1.8,3.8,2.1,6.4,1.8c0.7,0,1.8,0.2,1.9-0.1c0.1-0.3-0.5-0.6-0.7-1.1c-0.6-2.2-1.6-4.3-3.2-5.7
		c-0.8-0.7-1.4-0.6-1.2-0.2c0.5,0.9,0.4,2.4,0.9,3.8C74.3,1240.5,74.6,1241,75,1241.3z"/>
	<path fill="#002453" d="M69.4,1236.2c-1-0.8-2.1-1-2.8-1.2c-0.4-0.2-1.4-0.5-1.8-1.4c-0.1-0.2-0.5-0.5-0.5,0.4
		c0,0.2,0.2,0.6,0.4,1.1c1.1,2.1,2.9,2.9,5.4,3.4c0.6,0.2,1.6,0.7,1.7,0.4c0.2-0.2-0.3-0.7-0.3-1.2c0-2.2-0.3-4.4-1.4-6.1
		c-0.5-0.9-1.1-1-1-0.5c0.1,1-0.3,2.2-0.2,3.7C69,1235.3,69.1,1235.8,69.4,1236.2z"/>
	<path fill="#002453" d="M66,1230c-0.7-1-1.6-1.5-2.1-2c-0.3-0.3-1.1-0.9-1.3-1.8c-0.1-0.2-0.3-0.6-0.6,0.3c0,0.2,0,0.6,0.1,1.1
		c0.4,2.3,1.8,3.6,3.8,4.7c0.5,0.4,1.3,1.1,1.5,0.9c0.2-0.2-0.1-0.7,0.1-1.2c0.7-2,1-4.1,0.5-6c-0.2-1-0.8-1.2-0.8-0.8
		c-0.2,0.9-1,2-1.3,3.4C65.9,1229,65.9,1229.6,66,1230z"/>
	<path fill="#002453" d="M64.8,1223c-0.3-1.1-0.9-1.8-1.2-2.4c-0.1-0.3-0.7-1.2-0.5-2c0-0.1-0.1-0.7-0.6,0.1
		c-0.1,0.2-0.2,0.5-0.3,0.9c-0.4,2.1,0.4,3.7,1.8,5.5c0.4,0.5,0.7,1.4,0.9,1.3c0.3-0.1,0.2-0.6,0.5-1c1.3-1.6,2.3-3.3,2.4-5.1
		c0.1-0.9-0.3-1.3-0.4-1c-0.5,0.8-1.6,1.4-2.2,2.5C65,1222.1,64.8,1222.6,64.8,1223z"/>
	<path fill="#002453" d="M65.7,1216.5c0-1.1-0.4-2-0.5-2.5c-0.1-0.4-0.3-1.2,0.1-2c0-0.2,0.1-0.7-0.6-0.1c-0.1,0.1-0.3,0.4-0.5,0.8
		c-0.9,1.8-0.5,3.5,0.3,5.5c0.2,0.5,0.3,1.5,0.5,1.4c0.3,0,0.4-0.5,0.7-0.8c1.6-1.1,2.9-2.4,3.5-4.1c0.4-0.8,0.1-1.3-0.1-1
		c-0.6,0.6-1.7,0.9-2.7,1.8C66.1,1215.7,65.8,1216.1,65.7,1216.5z"/>
	<path fill="#002453" d="M68.3,1210.6c0.3-1,0.2-2,0.2-2.6c0-0.4,0-1.3,0.6-1.9c0.1-0.1,0.3-0.5-0.5-0.2c-0.2,0.1-0.4,0.3-0.7,0.6
		c-1.4,1.5-1.5,3.2-1.3,5.3c0.1,0.6-0.1,1.5,0.1,1.5c0.3,0.1,0.5-0.4,0.9-0.6c1.8-0.6,3.4-1.5,4.5-2.9c0.6-0.7,0.5-1.2,0.2-1
		c-0.8,0.4-1.9,0.4-3.1,1C69,1210,68.6,1210.3,68.3,1210.6z"/>
	<path fill="#002453" d="M72.4,1206c0.6-0.8,0.8-1.6,1-2.1c0.1-0.3,0.4-1,1.1-1.3c0.1-0.1,0.4-0.4-0.3-0.4c-0.1,0-0.5,0.1-0.8,0.3
		c-1.6,0.8-2.2,2.2-2.7,4c-0.1,0.5-0.5,1.2-0.3,1.3c0.2,0.1,0.5-0.2,0.9-0.2c1.7,0,3.4-0.2,4.6-1c0.7-0.4,0.8-0.8,0.5-0.8
		c-0.8,0.1-1.7-0.3-2.8-0.2C73,1205.6,72.6,1205.8,72.4,1206z"/>
	<path fill="#002453" d="M76.9,1202.9c0.6-0.5,0.9-1.2,1.2-1.6c0.1-0.2,0.5-0.8,1.2-0.9c0.1,0,0.4-0.3-0.2-0.4c-0.1,0-0.4,0-0.7,0.1
		c-1.5,0.4-2.4,1.5-3.1,3c-0.2,0.4-0.7,0.9-0.5,1.1c0.1,0.1,0.5-0.1,0.8,0c1.4,0.4,2.9,0.5,4.1,0c0.7-0.2,0.8-0.6,0.5-0.5
		c-0.7-0.1-1.4-0.5-2.4-0.7C77.6,1202.8,77.2,1202.8,76.9,1202.9z"/>
	<path fill="#002453" d="M84,1200.5c-0.5,1-1.7,1.3-2,1.4c-0.3,0.1-1.5,0.4-2.4-0.2c0.5-1,1.7-1.3,2-1.5
		C81.9,1200.2,83.1,1199.9,84,1200.5z"/>
	<path fill="#002453" d="M94.2,1210.8c0.8,0.3,1.5-0.1,1.8-0.7c0.1-0.3,0.2-0.5,0.2-0.8h1v8.5h-0.8c-1.3-3.6-4.6-7-8.4-7.8
		c-3.8-0.6-8.1-0.5-10.3,2.8c-0.6,0.9-0.3,2.8,0.9,3.4c3.9,2.4,8.1,1.3,13.3,2c2.6,0.4,5.5,1.9,6.6,4.7c1.1,2.8,0.9,5.7-0.2,7.5
		c-2.6,4.5-7.6,5-10.7,5c-3.3,0-6.6-1.5-9.2-2.5c-0.8-0.3-1.5,0.1-1.8,0.7c-0.1,0.3-0.2,0.5-0.2,0.8h-1c0-2.7,0-5.8,0-9
		c0.3,0,0.6,0,1,0c1,4.1,4.3,7.2,7.5,8.1c3.8,1.1,7.5,0.9,10.5-1.1c1.2-0.8,1.6-2.5,1.2-4.1c-0.7-2.3-4.2-2.9-6.7-2.9
		c-5.4-0.1-12-0.1-14-6.1c-0.8-2.9-0.3-6,1.8-8.2c3.4-3.3,9.1-3.4,13.5-2.1C91.7,1209.5,92.8,1210.4,94.2,1210.8z"/>
	<path fill="#002453" d="M91.7,1244.2c1.3,0,2.4,0.5,3.2,0.7c0.4,0.1,1.5,0.4,2.5,0c0.2-0.1,0.8-0.1,0.1,0.7c-0.2,0.2-0.5,0.4-1,0.7
		c-2.3,1.1-4.4,0.7-6.8-0.5c-0.7-0.3-1.7-0.3-1.6-0.6c0-0.3,0.5-0.5,0.9-1.1c1.4-2,3.1-3.6,5.1-4.3c1.1-0.4,1.6-0.1,1.3,0.2
		c-0.8,0.8-1.2,2.2-2.2,3.4C92.7,1243.7,92.2,1244,91.7,1244.2z"/>
	<path fill="#002453" d="M98.5,1241.3c1.2-0.4,2.4-0.3,3.1-0.4c0.4-0.1,1.6-0.1,2.2-0.8c0.1-0.1,0.7-0.4,0.3,0.6
		c-0.1,0.2-0.3,0.5-0.7,0.9c-1.8,1.8-3.8,2.1-6.4,1.8c-0.7,0-1.8,0.2-1.9-0.1c-0.1-0.3,0.5-0.6,0.7-1.1c0.6-2.2,1.6-4.3,3.2-5.7
		c0.8-0.7,1.4-0.6,1.2-0.2c-0.5,0.9-0.4,2.4-0.9,3.8C99.3,1240.5,98.9,1241,98.5,1241.3z"/>
	<path fill="#002453" d="M104.1,1236.2c1-0.8,2.1-1,2.8-1.2c0.4-0.2,1.4-0.5,1.8-1.4c0.1-0.2,0.5-0.5,0.5,0.4c0,0.2-0.2,0.6-0.4,1.1
		c-1.1,2.1-2.9,2.9-5.4,3.4c-0.6,0.2-1.6,0.7-1.7,0.4c-0.1-0.2,0.3-0.7,0.3-1.2c0-2.2,0.3-4.4,1.4-6.1c0.5-0.9,1.1-1,1-0.5
		c-0.1,1,0.3,2.2,0.2,3.7C104.6,1235.3,104.4,1235.8,104.1,1236.2z"/>
	<path fill="#002453" d="M107.5,1230c0.7-1,1.6-1.5,2.2-2c0.3-0.3,1.1-0.9,1.3-1.8c0-0.2,0.3-0.6,0.5,0.3c0,0.2,0,0.6,0,1.1
		c-0.4,2.3-1.8,3.6-3.9,4.7c-0.5,0.4-1.3,1.1-1.4,0.9c-0.2-0.2,0-0.7-0.1-1.2c-0.7-2-1.1-4.1-0.5-6c0.3-1,0.8-1.2,0.8-0.8
		c0.2,0.9,1,2,1.3,3.4C107.7,1229,107.7,1229.6,107.5,1230z"/>
	<path fill="#002453" d="M108.7,1223c0.3-1.1,0.9-1.8,1.2-2.4c0.1-0.3,0.7-1.2,0.5-2c0-0.1,0.1-0.7,0.6,0.1c0.1,0.2,0.2,0.5,0.3,0.9
		c0.4,2.1-0.4,3.7-1.7,5.5c-0.4,0.5-0.8,1.4-1,1.3c-0.3-0.1-0.2-0.6-0.5-1c-1.3-1.6-2.3-3.3-2.5-5.1c-0.1-0.9,0.3-1.3,0.4-1
		c0.5,0.8,1.6,1.4,2.2,2.5C108.5,1222.1,108.7,1222.6,108.7,1223z"/>
	<path fill="#002453" d="M107.8,1216.5c0-1.1,0.4-2,0.5-2.5c0.1-0.4,0.3-1.2,0-2c-0.1-0.2-0.1-0.7,0.5-0.1c0.1,0.1,0.3,0.4,0.5,0.8
		c0.9,1.8,0.5,3.5-0.3,5.5c-0.2,0.5-0.4,1.5-0.6,1.4c-0.3,0-0.3-0.5-0.7-0.8c-1.5-1.1-2.9-2.4-3.5-4.1c-0.3-0.8-0.1-1.3,0.1-1
		c0.6,0.6,1.7,0.9,2.7,1.8C107.4,1215.7,107.7,1216.1,107.8,1216.5z"/>
	<path fill="#002453" d="M105.2,1210.6c-0.3-1-0.2-2-0.2-2.6c0-0.4-0.1-1.3-0.6-1.9c-0.1-0.1-0.3-0.5,0.5-0.2
		c0.1,0.1,0.4,0.3,0.7,0.6c1.4,1.5,1.5,3.2,1.3,5.3c-0.1,0.6,0.1,1.5-0.1,1.5c-0.3,0.1-0.5-0.4-0.9-0.6c-1.8-0.6-3.5-1.5-4.5-2.9
		c-0.6-0.7-0.4-1.2-0.2-1c0.8,0.4,1.9,0.4,3.1,1C104.6,1210,105,1210.3,105.2,1210.6z"/>
	<path fill="#002453" d="M101.2,1206c-0.5-0.8-0.8-1.6-0.9-2.1c-0.1-0.3-0.5-1-1.1-1.3c-0.1-0.1-0.4-0.4,0.3-0.4
		c0.1,0,0.4,0.1,0.8,0.3c1.6,0.8,2.2,2.2,2.7,4c0.1,0.5,0.5,1.2,0.4,1.3c-0.2,0.1-0.5-0.2-0.9-0.2c-1.7,0.1-3.3-0.2-4.6-1
		c-0.7-0.4-0.8-0.9-0.5-0.8c0.8,0.1,1.7-0.3,2.9-0.2C100.6,1205.6,101,1205.7,101.2,1206z"/>
	<path fill="#002453" d="M96.6,1202.9c-0.6-0.5-0.9-1.2-1.2-1.6c-0.1-0.2-0.5-0.8-1.2-0.9c-0.1,0-0.4-0.3,0.2-0.3
		c0.1,0,0.4,0,0.7,0.1c1.5,0.4,2.4,1.5,3.1,2.9c0.2,0.4,0.7,0.9,0.5,1.1c-0.1,0.1-0.5-0.1-0.8,0c-1.4,0.4-2.9,0.4-4.1,0
		c-0.7-0.2-0.8-0.6-0.6-0.6c0.7-0.1,1.4-0.5,2.4-0.7C96,1202.7,96.4,1202.8,96.6,1202.9z"/>
	<path fill="#002453" d="M89.5,1200.5c0.5,1,1.7,1.3,2,1.4c0.3,0.1,1.5,0.4,2.4-0.2c-0.5-1-1.7-1.3-2-1.5
		C91.6,1200.2,90.5,1199.9,89.5,1200.5z"/>
	<polygon fill="#002453" points="37.7,1285.8 37.7,1285.4 37,1285.4 37,1279.3 37.7,1279.3 37.7,1278.9 34.8,1278.9 34.8,1279.3 
		35.4,1279.3 35.4,1282 32.8,1282 32.8,1279.3 33.4,1279.3 33.4,1278.9 30.5,1278.9 30.5,1279.3 31.2,1279.3 31.2,1285.4 
		30.5,1285.4 30.5,1285.8 33.4,1285.8 33.4,1285.4 32.8,1285.4 32.8,1282.4 35.4,1282.4 35.4,1285.4 34.8,1285.4 34.8,1285.8 	"/>
	<path fill="#002453" d="M44.2,1282.4c0,1.9-0.5,3.2-1.7,3.2c-1.3,0-1.8-1.7-1.8-3.2c0-1.6,0.3-3.5,1.8-3.5
		C43.9,1278.9,44.2,1280.9,44.2,1282.4z M45.9,1282.4c0.1-2.1-1.2-3.7-3.4-3.7c-1.6,0-3.4,0.9-3.5,3.7c-0.1,1.4,0.9,3.6,3.5,3.6
		C45.2,1286,45.9,1283.7,45.9,1282.4z"/>
	<path fill="#002453" d="M53.4,1281.5v-2.6h-6.1v2.6h0.2c0-2.1,1.4-2.3,1.8-2.3h0.2v6.2h-0.6v0.4h2.9v-0.4h-0.6v-6.2h0.2
		c0.4,0,2,0.2,2,2.3H53.4z"/>
	<path fill="#002453" d="M61.1,1285.8v-2.4h-0.2c0,1.4-1.1,2.1-1.9,2.1h-2v-3h0.8c0.7,0,1.2,0.3,1.2,1.5h0.2v-3.2H59
		c0,0.7-0.5,1.4-1.2,1.4H57v-2.9h1.5c1.6,0,1.9,0.4,2.2,2.1h0.2v-2.5h-6.2v0.4h0.6v6.2c-0.2,0-0.4,0-0.6,0v0.4H61.1z"/>
	<path fill="#002453" d="M68,1285.8v-2.8h-0.2c-0.2,1.1-0.5,2.4-2.3,2.4c-0.3,0-0.5,0-0.8,0v-6.2h0.6v-0.4h-2.9v0.4H63v6.2h-0.6v0.4
		H68z"/>
	<path fill="#002453" d="M75.3,1283.6c0-1.4-1-2.3-2.5-2.4c-1.4-0.1-2.5-0.1-2.5-1.1c0-1,1-1.1,1.7-1.1c2,0,2.5,1.8,2.6,2.1h0.3
		v-2.3h-0.3c0,0.2,0,0.5-0.3,0.5c-0.3,0-1-0.7-2.4-0.7c-1.4,0-2.4,1-2.4,2.3c0,1.2,1,2.2,2.4,2.2c1.3,0,2.6,0.1,2.6,1.2
		c0,1-1.1,1.2-2,1.3c-1.7,0-2.4-1.1-2.7-2.3h-0.3v2.5h0.3c0,0,0.1-0.5,0.4-0.5c0.6,0,0.8,0.7,2.4,0.7
		C74.2,1286,75.3,1284.9,75.3,1283.6z"/>
	<path fill="#002453" d="M82.9,1285.1c-0.3,0.3-1.1,0.4-1.3,0.4c-0.9,0-1.7-0.9-1.7-1.9c0-0.4,0.2-1,0.5-1.2L82.9,1285.1z
		 M82.2,1280.1c0,0.5-0.2,0.9-0.8,1.3c0,0-1-0.8-1-1.6c0-0.4,0.3-0.9,0.9-0.9C81.9,1278.9,82.2,1279.5,82.2,1280.1z M85.8,1283.9
		h-0.3c0,0.3,0,0.9-0.5,0.9c-0.5,0-0.9-0.7-0.9-0.7c0.1-0.2,0.5-0.9,0.5-2.1c0-0.2,0-0.4-0.1-0.6l-0.4,0.1c0,1,0.1,1.8-0.3,2.4
		l-2.2-2.3c0.3-0.2,1.2-0.6,1.2-1.6c0-0.6-0.4-1.4-1.5-1.4c-1.1,0-2,0.8-2,1.8c0,0.7,0.3,1,0.8,1.7c-0.4,0.2-1.7,0.8-1.7,2.1
		c0,0.7,0.5,1.8,2.3,1.8c1.8,0,2.3-0.6,2.4-0.6c0.2,0.1,0.4,0.4,1.1,0.4c1.3,0,1.5-0.9,1.5-1.2C85.8,1284.3,85.8,1283.9,85.8,1283.9
		z"/>
	<path fill="#002453" d="M93.7,1280.8c0,0.8-0.4,1.4-1.4,1.4h-1.1v-2.9h1.2C93.4,1279.3,93.7,1279.9,93.7,1280.8z M96.3,1284.2h-0.2
		c0,0.5-0.1,1.2-0.5,1.2c-0.4,0-0.3-0.4-0.4-1.4c-0.1-1.3-1-1.5-1.4-1.6c0.3-0.1,1.6-0.2,1.6-1.7c0-1-0.4-1.8-2.2-1.8H89v0.4h0.6
		v6.2H89v0.4h2.9v-0.4h-0.6v-2.9h1.1c1.1,0,1.1,0.5,1.1,1.8c0,1.4,0.7,1.7,1.5,1.7C96,1286,96.3,1285.3,96.3,1284.2z"/>
	<path fill="#002453" d="M103.9,1285.8v-2.4h-0.2c0,1.4-1.1,2.1-1.9,2.1h-2v-3h0.8c0.7,0,1.2,0.3,1.2,1.5h0.2v-3.2h-0.2
		c0,0.7-0.5,1.4-1.2,1.4h-0.8v-2.9h1.5c1.6,0,1.9,0.4,2.2,2.1h0.2v-2.5h-6.2v0.4h0.6v6.2c-0.2,0-0.4,0-0.6,0v0.4H103.9z"/>
	<path fill="#002453" d="M111.2,1283.6c0-1.4-1-2.3-2.5-2.4c-1.4-0.1-2.5-0.1-2.5-1.1c0-1,1-1.1,1.7-1.1c2,0,2.5,1.8,2.6,2.1h0.3
		v-2.3h-0.3c0,0.2,0,0.5-0.3,0.5c-0.3,0-1-0.7-2.4-0.7c-1.4,0-2.4,1-2.4,2.3c0,1.2,1,2.2,2.4,2.2c1.3,0,2.6,0.1,2.6,1.2
		c0,1-1.1,1.2-2,1.3c-1.7,0-2.4-1.1-2.7-2.3h-0.3v2.5h0.3c0,0,0.1-0.5,0.4-0.5c0.6,0,0.8,0.7,2.4,0.7
		C110.2,1286,111.2,1284.9,111.2,1283.6z"/>
	<path fill="#002453" d="M117.8,1282.4c0,1.9-0.5,3.2-1.7,3.2c-1.3,0-1.8-1.7-1.8-3.2c0-1.6,0.3-3.5,1.8-3.5
		C117.4,1278.9,117.8,1280.9,117.8,1282.4z M119.5,1282.4c0.1-2.1-1.2-3.7-3.4-3.7c-1.6,0-3.4,0.9-3.5,3.7c-0.1,1.4,0.9,3.6,3.5,3.6
		C118.7,1286,119.4,1283.7,119.5,1282.4z"/>
	<path fill="#002453" d="M125.5,1280.8c0,0.8-0.4,1.4-1.4,1.4H123v-2.9h1.2C125.2,1279.3,125.5,1279.9,125.5,1280.8z M128.1,1284.2
		h-0.2c0,0.5-0.1,1.2-0.5,1.2c-0.4,0-0.3-0.4-0.4-1.4c-0.1-1.3-1-1.5-1.4-1.6c0.3-0.1,1.6-0.2,1.6-1.7c0-1-0.4-1.8-2.2-1.8h-4.1v0.4
		h0.6v6.2h-0.6v0.4h2.9v-0.4H123v-2.9h1.1c1.1,0,1.1,0.5,1.1,1.8c0,1.4,0.7,1.7,1.5,1.7C127.7,1286,128.1,1285.3,128.1,1284.2z"/>
	<path fill="#002453" d="M135.5,1281.5v-2.6h-6.1v2.6h0.2c0-2.1,1.4-2.3,1.8-2.3h0.2v6.2h-0.6v0.4h2.9v-0.4h-0.6v-6.2h0.2
		c0.4,0,2,0.2,2,2.3H135.5z"/>
	<path fill="#002453" d="M142.8,1283.6c0-1.4-1-2.3-2.5-2.4c-1.4-0.1-2.5-0.1-2.5-1.1c0-1,1-1.1,1.7-1.1c2,0,2.5,1.8,2.6,2.1h0.3
		v-2.3h-0.3c0,0.2,0,0.5-0.3,0.5c-0.3,0-1-0.7-2.4-0.7c-1.4,0-2.4,1-2.4,2.3c0,1.2,1,2.2,2.4,2.2c1.3,0,2.6,0.1,2.6,1.2
		c0,1-1.1,1.2-2,1.3c-1.7,0-2.4-1.1-2.7-2.3h-0.3v2.5h0.3c0,0,0.1-0.5,0.4-0.5c0.6,0,0.8,0.7,2.4,0.7
		C141.8,1286,142.8,1284.9,142.8,1283.6z"/>
	<path fill="#002453" d="M37.7,1266.3c0-4.1-2.9-6.9-7.4-7c-4.3-0.2-7.5-0.2-7.5-3.2c0-2.8,2.8-3.3,5.1-3.3c5.8,0,7.5,5.4,7.7,6.3
		h0.8v-6.7h-0.8c0,0.6,0,1.5-0.8,1.5c-1,0-2.9-2-7.3-2c-4.2,0-7.3,2.8-7.3,6.8c0,3.5,2.9,6.5,7.1,6.5c4,0.1,7.6,0.3,7.6,3.5
		c0,2.9-3.1,3.7-6,3.8c-5,0.1-7.2-3.3-8.1-6.9H20v7.4h0.8c0,0,0.2-1.5,1.1-1.5c1.7,0,2.4,2,7.2,2
		C34.7,1273.4,37.7,1270.1,37.7,1266.3z"/>
	<path fill="#002453" d="M57.6,1272.9v-1h-1.8v-8.9c0-2.6-2.1-5.2-5.7-5.2c-2.9,0-4.2,1.2-5.3,2.3v-7.8h-6.5v1H40v18.6h-1.8v1h8.3
		v-1h-1.7v-8.4c0-2.1,1.1-4.2,3.5-4.2c1.5,0,2.5,1.5,2.5,2.8v9.8H49v1H57.6z"/>
	<path fill="#002453" d="M68.5,1264.5h-6.1c0,0-0.2-6,3.1-6C69,1258.5,68.5,1264.5,68.5,1264.5z M72.9,1265.5v-1.1
		c0-3.3-2.4-6.8-7.4-6.8c-4.6,0-8,2.8-8,8c0,5.2,3.8,7.8,8.3,7.8c2.9,0,6.5-1.3,7-5.8h-0.7c0,1.2-1.5,4.5-5,4.5
		c-4.3,0-4.8-3.2-4.8-6.7H72.9z"/>
	<path fill="#002453" d="M87.7,1261.1c0-1.5-1-3.3-3-3.3c-2.5,0-4,1.9-4.4,2.5v-2.1h-6.4v1h1.5v12.8h-1.8v1h8.4v-1h-1.8v-6.4
		c0-3.3,1.9-6.7,4.5-6.7c0.5,0,0.8,0.2,1.1,0.5c-1-0.3-2.5,0.7-2.5,2.3c0,1.3,1.2,2.2,2.3,2.2C86.7,1263.7,87.7,1262.4,87.7,1261.1z
		"/>
	<path fill="#002453" d="M97.9,1269c0,1.6-1.8,3-2.6,3c-1.3,0-2.2-1.5-2.2-2.9c0-3.4,2.9-3.2,4.8-4.8V1269z M106,1269.3v-1.1h-0.8
		c0,0.8,0,3.5-1.2,3.5c-0.7,0-1.1-0.5-1.1-1.2v-4.8c0-2.7,0.7-8.1-7-8.1c-4.5,0-6.8,1.8-6.8,3.9c0,0.7,0.3,2.3,2.3,2.3
		c0.9,0,2.2-1,2.2-2.3c0-1.6-1.5-2.2-1.5-2.2c0.7-0.4,1.4-0.6,2.4-0.6c1.9,0,3.6,1.1,3.6,3c0,5-9.8,1-9.8,7.6c0,1.7,1,4.2,4.8,4.2
		c3.8,0,4.5-1.5,5.2-2.6c0.9,1.5,1.6,2.5,3.6,2.5C104.9,1273.4,106,1271.9,106,1269.3z"/>
	<path fill="#002453" d="M116.3,1269.1v-0.9h-0.7c0,1.1,0,3.3-1.8,3.3c-0.8,0-1.7-0.6-1.7-1.9v-10.6h2.7v-1h-2.7v-5.1h-0.7
		c-0.5,2.4-2.1,5.1-5.4,5.1v1h1.8v10.6c0,1.9,1.5,3.8,4.2,3.8C115.6,1273.4,116.3,1270.5,116.3,1269.1z"/>
	<path fill="#002453" d="M128.7,1265.4c0,2.9-0.5,7-3.6,7c-3.3,0-3.6-5.1-3.6-6.6c0-2.5,0.5-7.2,3.8-7.2
		C128.1,1258.5,128.7,1262.3,128.7,1265.4z M133.4,1265.6c0-4.1-2.2-8-8.4-8c-5.3,0-8,3.5-8,8c0,5,3.2,7.8,8.2,7.8
		C129.5,1273.4,133.4,1271,133.4,1265.6z"/>
	<path fill="#002453" d="M153,1272.9v-1h-1.6v-9c0-2.8-1.9-5.3-5.8-5.3c-3,0-4.5,1.4-5.4,2.5v-2.1h-6.5v1h1.7v12.8h-1.8v1h8.4v-1
		h-1.8v-8.1c0-2.1,1.2-4.5,3.4-4.5c1.2,0,2.6,0.8,2.6,2.5v10.1h-1.8v1H153z"/>
	<path fill="#002453" d="M154.3,1259.6v-0.8h0.5c0.3,0,0.6,0.1,0.6,0.4c0,0.4-0.3,0.4-0.6,0.4H154.3z M154.3,1259.9h0.4l0.7,1.1h0.4
		l-0.7-1.1c0.4,0,0.7-0.2,0.7-0.7c0-0.5-0.3-0.7-0.9-0.7h-1v2.6h0.4V1259.9z M152.9,1259.8c0-1.1,0.8-1.9,1.8-1.9
		c1,0,1.8,0.8,1.8,1.9c0,1.1-0.8,1.9-1.8,1.9C153.7,1261.6,152.9,1260.8,152.9,1259.8z M154.7,1262c1.2,0,2.3-0.9,2.3-2.2
		c0-1.3-1-2.2-2.3-2.2c-1.2,0-2.3,0.9-2.3,2.2C152.5,1261.1,153.5,1262,154.7,1262z"/>
	<path fill="none" stroke="#231F20" stroke-width="5.122000e-02" stroke-miterlimit="3.8637" d="M154.3,1259.6v-0.8h0.5
		c0.3,0,0.6,0.1,0.6,0.4c0,0.4-0.3,0.4-0.6,0.4H154.3z M154.3,1259.9h0.4l0.7,1.1h0.4l-0.7-1.1c0.4,0,0.7-0.2,0.7-0.7
		c0-0.5-0.3-0.7-0.9-0.7h-1v2.6h0.4V1259.9z M152.9,1259.8c0-1.1,0.8-1.9,1.8-1.9c1,0,1.8,0.8,1.8,1.9c0,1.1-0.8,1.9-1.8,1.9
		C153.7,1261.6,152.9,1260.8,152.9,1259.8z M154.7,1262c1.2,0,2.3-0.9,2.3-2.2c0-1.3-1-2.2-2.3-2.2c-1.2,0-2.3,0.9-2.3,2.2
		C152.5,1261.1,153.5,1262,154.7,1262z"/>
</g>
<g>
	<path fill="#518524" d="M143.9,1351.3h-1.2c-2.8,0-4.2-3.4-4.2-8.4c0-5.1,1.4-8.4,4.2-8.4h1.2c2.6,0,3.6,1.6,4,4.6h9.1
		c-1-6.1-4.7-9.2-12.5-9.2h-3.6c-7.2,0-12.8,5.1-12.8,13c0,0.6,0,1.1,0.1,1.6l-5.1-13.7h-14l-5.4,14.9l-5.6-14.9H84.3l-8.4,23.2
		V1331h-7.8v13.8L56.6,1331h-8.1v25h7.8v-14.2l11.8,14.2h16.2l7.1-19.7l3.8,10h8.6l-1.1,2.9H91.1l-2.3,6.7h20.5l7.1-19.7l3.8,10h8.6
		c0.3,1,0.6,2.1,1,2.9h-14l-2.3,6.7h24.3l-0.2-0.3c1,0.3,2.1,0.3,3.1,0.3h3.6c8.3,0,11.6-3.6,12.5-9.2l-9.1-0.5
		C147.7,1349.3,146.7,1351.3,143.9,1351.3L143.9,1351.3z M44.1,1342.3c-4.5-1.9-9.8-2.6-12.2-3.9c-1.9-1-1.7-3.4,2.1-3.6
		s5.6,2.9,5.6,2.9l7.8-2.1c-4.9-7-16.9-5.8-20.7-4c-3.8,1.8-5.7,4.1-4.9,7.3c0.9,3.4,4.4,5,8.8,6c4.5,1,6.5,1.6,7.7,2.7
		c1.2,1.1,1.1,3.7-3.8,3.7s-6.5-3.6-6.5-3.6l-8,2.1c0.5,0.9,3.6,6.2,14.2,6.2c10.7,0,14.2-5.2,14.2-8.1
		C48.4,1346.1,48.2,1344.1,44.1,1342.3L44.1,1342.3z"/>
</g>
<g>
	<path fill="#3284BF" d="M20,1400v60h131v-60H20z M61.1,1432.6c-0.6,6.7-5.1,11.8-12.4,11.8c-5.6,0-9.3-3.6-10-8.9
		c-0.1-1-0.1-2.5-0.1-3.2l1.5-17.3h5.6l-1.5,17.4c-0.3,3.8,1.1,6.5,4.9,6.5c3.8,0,5.9-2.8,6.2-6.1L57,1415h5.6L61.1,1432.6z
		 M87.6,1423.5c-2.2-2.9-4.9-3.4-7.3-3.4c-6,0-9.3,4.2-9.8,9.4c-0.5,5.1,2.2,9.3,8,9.3c2.5,0,5.2-0.7,8-3.5l-0.6,7
		c-2.7,1.5-5.3,2.2-7.9,2.2c-9.5,0-13.9-7.1-13.2-14.8c0.7-8.3,6.3-15.1,16-15.1c2.5,0,5,0.6,7.4,2.1L87.6,1423.5z M106.9,1444H90.2
		l2.6-29h5.6l-2,24c0,0,7.8,0,8.1,0c0.6,0,2.5-0.2,3-0.2C107.4,1439.1,106.9,1444,106.9,1444z M128.1,1444l-1.4-4h-10.8l-2.2,4h-6
		l15.4-30.1l0.4,0L134,1444H128.1z"/>
	<path fill="#3284BF" d="M122.6,1424.6L122.6,1424.6c-0.2,0.3-0.3,1.1-0.5,1.5c-0.1,0.2-3.9,8.9-3.9,8.9h7.1c0,0-2.2-7.6-2.5-8.9
		C122.7,1425.7,122.6,1425,122.6,1424.6z"/>
</g>
<path fill-rule="evenodd" clip-rule="evenodd" fill="#D1232A" d="M88.5,1578.4c5.5,0,10-11.5,10.2-26l0,0c-3.3,0.3-6.7,0.5-10.3,0.5
	c-3.5,0-6.9-0.2-10.3-0.5l0,0C78.5,1566.9,83,1578.4,88.5,1578.4 M88.5,1541.4c3.3,0,6.5-0.1,9.5-0.4l0,0c-1.5-10-5.2-17-9.5-17
	c-4.3,0-8,7.1-9.5,17l0,0C82,1541.3,85.2,1541.4,88.5,1541.4z M92.9,1592.4c30.7-1.6,54.8-19.8,54.8-42c0-7.5-2.8-14.6-7.7-20.8
	l-0.1-0.1c-0.4,10.3-14.8,18.9-34.8,22.1l0,0c0,0.7,0,1.3,0,2c0,18.6-5.3,34.3-12.5,38.8L92.9,1592.4z M88.5,1513.5
	c7.3,0,13.5,11.2,15.8,26.8l0,0c14.2-2.2,24.2-7.4,24.2-13.4c0-8-17.9-14.5-40-14.5c-22.1,0-40,6.5-40,14.5c0,6,9.9,11.1,24.2,13.4
	l0,0C75,1524.7,81.2,1513.5,88.5,1513.5z M20,1552c0-24.9,30.7-45,68.5-45c37.8,0,68.5,20.1,68.5,45s-30.7,45-68.5,45
	C50.7,1597,20,1576.8,20,1552z M84.2,1592.4c-7.2-4.5-12.5-20.2-12.5-38.8c0-0.7,0-1.4,0-2l0,0c-20-3.2-34.4-11.8-34.8-22.1
	l-0.1,0.1c-4.9,6.1-7.7,13.2-7.7,20.8c0,22.2,24.2,40.4,54.8,42L84.2,1592.4z"/>
<g>
	<path fill="#749FC1" d="M88.5,1639.9c32.3,0,58.6,26.3,58.6,58.6c0,32.3-26.3,58.6-58.6,58.6c-32.3,0-58.6-26.3-58.6-58.6
		C29.9,1666.2,56.2,1639.9,88.5,1639.9 M88.5,1630c-37.8,0-68.5,30.7-68.5,68.5c0,37.8,30.7,68.5,68.5,68.5
		c37.8,0,68.5-30.7,68.5-68.5C157,1660.7,126.3,1630,88.5,1630L88.5,1630z"/>
	<g>
		<g>
			<polygon fill="#749FC1" points="88.1,1695.2 118.3,1682.9 118.3,1668.7 58.7,1668.7 58.7,1683.2 			"/>
		</g>
		<g>
			<polygon fill="#749FC1" points="88.1,1701.8 58.7,1689.7 58.7,1728.3 118.3,1728.3 118.3,1689.5 			"/>
		</g>
	</g>
</g>
<g>
	<path fill="#749FC1" d="M88.5,1809.9c32.3,0,58.6,26.3,58.6,58.6c0,32.3-26.3,58.6-58.6,58.6c-32.3,0-58.6-26.3-58.6-58.6
		C29.9,1836.2,56.2,1809.9,88.5,1809.9 M88.5,1800c-37.8,0-68.5,30.7-68.5,68.5c0,37.8,30.7,68.5,68.5,68.5
		c37.8,0,68.5-30.7,68.5-68.5C157,1830.7,126.3,1800,88.5,1800L88.5,1800z"/>
	<rect x="59" y="1858" fill="#749FC1" width="10" height="38"/>
	<ellipse fill="#749FC1" cx="63.8" cy="1845.3" rx="5.1" ry="4.9"/>
	<path fill="#749FC1" d="M104.9,1856.4c-7.6,0-10.3,3.2-12.7,5.6v-4.8H82v39.4h10.2v-13.7v-9c0-3.2,1.9-9.1,8.2-9.1s7.7,5.9,7.7,9.1
		v12.8v9.9h10.3v-25C118.3,1863.2,113.9,1856.4,104.9,1856.4z"/>
</g>
<g>
	<path fill="#749FC1" d="M88.5,1989.9c32.3,0,58.6,26.3,58.6,58.6c0,32.3-26.3,58.6-58.6,58.6c-32.3,0-58.6-26.3-58.6-58.6
		C29.9,2016.2,56.2,1989.9,88.5,1989.9 M88.5,1980c-37.8,0-68.5,30.7-68.5,68.5c0,37.8,30.7,68.5,68.5,68.5
		c37.8,0,68.5-30.7,68.5-68.5C157,2010.7,126.3,1980,88.5,1980L88.5,1980z"/>
	<path fill="#749FC1" d="M118.3,2030c-2.2,1-4.5,1.6-7,1.9c2.5-1.5,4.5-3.9,5.4-6.8c-2.4,1.4-5,2.4-7.8,3c-2.2-2.4-5.4-3.9-8.9-3.9
		c-6.7,0-12.2,5.5-12.2,12.2c0,1,0.1,1.9,0.3,2.8c-10.2-0.5-19.2-5.4-25.2-12.8c-1.1,1.8-1.7,3.9-1.7,6.1c0,4.2,2.2,8,5.4,10.2
		c-2-0.1-3.9-0.6-5.5-1.5c0,0.1,0,0.1,0,0.2c0,5.9,4.2,10.9,9.8,12c-1,0.3-2.1,0.4-3.2,0.4c-0.8,0-1.6-0.1-2.3-0.2
		c1.6,4.9,6.1,8.4,11.4,8.5c-4.2,3.3-9.5,5.2-15.2,5.2c-1,0-2-0.1-2.9-0.2c5.4,3.5,11.8,5.5,18.7,5.5c22.5,0,34.8-18.6,34.8-34.8
		c0-0.5,0-1.1,0-1.6C114.6,2034.6,116.6,2032.5,118.3,2030z"/>
</g>
<g>
	<path fill="#749FC1" d="M88.5,2179.9c32.3,0,58.6,26.3,58.6,58.6c0,32.3-26.3,58.6-58.6,58.6c-32.3,0-58.6-26.3-58.6-58.6
		C29.9,2206.2,56.2,2179.9,88.5,2179.9 M88.5,2170c-37.8,0-68.5,30.7-68.5,68.5c0,37.8,30.7,68.5,68.5,68.5
		c37.8,0,68.5-30.7,68.5-68.5C157,2200.7,126.3,2170,88.5,2170L88.5,2170z"/>
	<path fill="#749FC1" d="M81.8,2237.9v30.4l11.2,0v-30.4h11.4v-9.4H93.1c0,0,0-2,0-4.5c0-2.5,1.5-4.6,3.9-4.6c2.4,0,7.4,0,7.4,0
		v-10.6c0,0-8.1,0-12.6,0c-4.5,0-10,4.8-10,10.6c0,5.7,0,9.2,0,9.2h-9.3v9.4H81.8z"/>
</g>
<g>
	<g>
		<rect x="32.9" y="2562.9" fill="#3B3F42" width="16.2" height="3.1"/>
		<rect x="32.9" y="2576" fill="#3B3F42" width="16.2" height="3.1"/>
		<rect x="32.9" y="2569.5" fill="#3B3F42" width="16.2" height="3.1"/>
	</g>
	<path fill="#3B3F42" d="M41,2553c9.9,0,18,8.1,18,18c0,9.9-8.1,18-18,18c-9.9,0-18-8.1-18-18C23,2561.1,31.1,2553,41,2553 M41,2550
		c-11.6,0-21,9.4-21,21s9.4,21,21,21c11.6,0,21-9.4,21-21S52.6,2550,41,2550L41,2550z"/>
</g>
<polygon fill="#3B3F42" points="46.3,2651.6 44.1,2649.4 32.7,2660.8 44.1,2672.2 46.3,2670 37.1,2660.8 "/>
<path fill="#3B3F42" d="M41,2643c9.9,0,18,8.1,18,18s-8.1,18-18,18c-9.9,0-18-8.1-18-18S31.1,2643,41,2643 M41,2640
	c-11.6,0-21,9.4-21,21s9.4,21,21,21c11.6,0,21-9.4,21-21S52.6,2640,41,2640L41,2640z"/>
<polygon fill="#3B3F42" points="35.7,2731.6 37.9,2729.4 49.3,2740.8 37.9,2752.2 35.7,2750 44.9,2740.8 "/>
<path fill="#3B3F42" d="M41,2723c9.9,0,18,8.1,18,18s-8.1,18-18,18c-9.9,0-18-8.1-18-18S31.1,2723,41,2723 M41,2720
	c-11.6,0-21,9.4-21,21s9.4,21,21,21c11.6,0,21-9.4,21-21S52.6,2720,41,2720L41,2720z"/>
<g>
	<polygon fill="#3B3F42" points="107.8,2566.4 105.6,2564.2 101,2568.8 96.4,2564.2 94.2,2566.4 98.8,2571 94.2,2575.6 96.4,2577.8 
		101,2573.2 105.6,2577.8 107.8,2575.6 103.2,2571 	"/>
	<path fill="#3B3F42" d="M101,2553c9.9,0,18,8.1,18,18s-8.1,18-18,18c-9.9,0-18-8.1-18-18S91.1,2553,101,2553 M101,2550
		c-11.6,0-21,9.4-21,21s9.4,21,21,21c11.6,0,21-9.4,21-21S112.6,2550,101,2550L101,2550z"/>
</g>
<g>
	<rect x="20" y="2800" fill="#3B3F42" width="16" height="3"/>
	<rect x="20" y="2813" fill="#3B3F42" width="16" height="3"/>
	<rect x="20" y="2806.5" fill="#3B3F42" width="16" height="3"/>
</g>
<polygon fill="#3B3F42" points="69,2803.2 66.8,2801 62,2805.8 57.2,2801 55,2803.2 59.8,2808 55,2812.8 57.2,2815 62,2810.2 
	66.8,2815 69,2812.8 64.2,2808 "/>
<g>
	<path fill="#749FC1" d="M88.5,2359.9c32.3,0,58.6,26.3,58.6,58.6c0,32.3-26.3,58.6-58.6,58.6c-32.3,0-58.6-26.3-58.6-58.6
		C29.9,2386.2,56.2,2359.9,88.5,2359.9 M88.5,2350c-37.8,0-68.5,30.7-68.5,68.5c0,37.8,30.7,68.5,68.5,68.5
		c37.8,0,68.5-30.7,68.5-68.5C157,2380.7,126.3,2350,88.5,2350L88.5,2350z"/>
	<path fill-rule="evenodd" clip-rule="evenodd" fill="#749FC1" d="M66.4,2388.7h44.3c4.2,0,7.6,3.4,7.6,7.6v44.3
		c0,4.2-3.4,7.6-7.6,7.6H66.4c-4.2,0-7.6-3.4-7.6-7.6v-44.3C58.7,2392.2,62.2,2388.7,66.4,2388.7L66.4,2388.7z M102.1,2395.3
		c-1.5,0-2.7,1.2-2.7,2.7v6.4c0,1.5,1.2,2.7,2.7,2.7h6.7c1.5,0,2.7-1.2,2.7-2.7v-6.4c0-1.5-1.2-2.7-2.7-2.7H102.1L102.1,2395.3z
		 M111.6,2413.9h-5.2c0.5,1.6,0.8,3.3,0.8,5.1c0,9.9-8.3,17.9-18.5,17.9c-10.2,0-18.5-8-18.5-17.9c0-1.8,0.3-3.5,0.8-5.1h-5.5v25.2
		c0,1.3,1.1,2.4,2.4,2.4h41.5c1.3,0,2.4-1.1,2.4-2.4V2413.9L111.6,2413.9z M88.6,2406.8c-6.6,0-12,5.2-12,11.6
		c0,6.4,5.4,11.6,12,11.6c6.6,0,12-5.2,12-11.6C100.5,2412,95.2,2406.8,88.6,2406.8z"/>
</g>
</svg>
